<svg width="108" height="32" viewBox="0 0 108 32" fill="none" xmlns="http://www.w3.org/2000/svg">
<path d="M107.284 28.2222C107.284 28.6249 107.204 29.0237 107.05 29.3958C106.896 29.7678 106.67 30.1058 106.385 30.3905C106.1 30.6751 105.761 30.9008 105.389 31.0546C105.017 31.2085 104.618 31.2874 104.215 31.287H3.78526C2.97128 31.2878 2.19028 30.9654 1.61403 30.3907C1.03778 29.816 0.713463 29.0359 0.712402 28.2222V3.78101C0.713463 2.96687 1.03765 2.18642 1.61379 1.61104C2.18992 1.03566 2.97091 0.71237 3.78526 0.712158H104.214C104.617 0.712158 105.016 0.791542 105.389 0.945776C105.761 1.10001 106.099 1.32607 106.384 1.61105C106.669 1.89603 106.895 2.23434 107.049 2.60667C107.204 2.97899 107.283 3.37804 107.283 3.78101L107.284 28.2222Z" fill="white"/>
<path d="M104.215 32H3.78525C2.78251 31.9998 1.82081 31.6019 1.11117 30.8937C0.401526 30.1854 0.00190793 29.2247 0 28.2222L0 3.78184C0.0014834 2.77888 0.400838 1.81745 1.11046 1.10847C1.82008 0.399485 2.78201 0.000846543 3.78525 0L104.214 0C105.217 0.00126895 106.179 0.400043 106.888 1.10893C107.598 1.81782 107.997 2.77901 107.999 3.78184V28.2222C108.001 30.306 106.3 32 104.215 32Z" fill="#A6A6A6"/>
<path d="M107.284 28.2222C107.284 28.6249 107.204 29.0237 107.05 29.3958C106.896 29.7678 106.67 30.1058 106.385 30.3905C106.1 30.6751 105.761 30.9008 105.389 31.0546C105.017 31.2085 104.618 31.2874 104.215 31.287H3.78526C2.97128 31.2878 2.19028 30.9654 1.61403 30.3907C1.03778 29.816 0.713463 29.0359 0.712402 28.2222V3.78101C0.713463 2.96687 1.03765 2.18642 1.61379 1.61104C2.18992 1.03566 2.97091 0.71237 3.78526 0.712158H104.214C104.617 0.712158 105.016 0.791542 105.389 0.945776C105.761 1.10001 106.099 1.32607 106.384 1.61105C106.669 1.89603 106.895 2.23434 107.049 2.60667C107.204 2.97899 107.283 3.37804 107.283 3.78101L107.284 28.2222Z" fill="black"/>
<path d="M24.1154 15.8317C24.0922 13.2526 26.2277 11.9978 26.3254 11.9394C25.1159 10.1765 23.2413 9.93567 22.5826 9.91646C21.0081 9.75082 19.4809 10.8583 18.6789 10.8583C17.8608 10.8583 16.6257 9.93247 15.2946 9.95967C13.5817 9.98608 11.9792 10.9776 11.1004 12.5172C9.28658 15.6564 10.6393 20.2697 12.377 22.8072C13.2463 24.0508 14.2621 25.4375 15.5916 25.3887C16.8923 25.3359 17.3782 24.5605 18.9478 24.5605C20.503 24.5605 20.9593 25.3887 22.3152 25.3575C23.7112 25.3359 24.59 24.1092 25.4289 22.8552C26.4334 21.4316 26.8369 20.0281 26.8529 19.956C26.8209 19.9448 24.1426 18.9221 24.1154 15.8317ZM21.554 8.2472C22.2536 7.37256 22.7322 6.18263 22.5994 4.9751C21.5868 5.01991 20.3205 5.67529 19.5913 6.53073C18.9462 7.28454 18.3699 8.52008 18.5188 9.682C19.6562 9.76682 20.824 9.10824 21.554 8.2472Z" fill="white"/>
<path d="M104.215 0H50.4216L71.4914 32H104.215C105.218 31.9992 106.179 31.6008 106.889 30.8921C107.599 30.1835 107.998 29.2225 108 28.2198V3.78184C107.998 2.77894 107.599 1.81763 106.889 1.1087C106.18 0.399764 105.218 0.00105783 104.215 0Z" fill="url(#paint0_linear_404_320)"/>
<path d="M42.9553 25.2101H41.1375L40.1417 22.082H36.6807L35.7322 25.2101H33.9624L37.3923 14.5607H39.5102L42.9553 25.2101ZM39.8416 20.7696L38.9411 17.9889C38.8458 17.7048 38.6665 17.0358 38.404 15.9827H38.372C38.2663 16.4356 38.0974 17.1046 37.8661 17.9889L36.9808 20.7696H39.8416ZM51.7584 21.2762C51.7584 22.5821 51.4038 23.6144 50.6939 24.3722C50.0583 25.0468 49.2683 25.3837 48.3262 25.3837C47.3088 25.3837 46.5772 25.0212 46.133 24.2946V28.3237H44.4265V20.055C44.4265 19.2348 44.4049 18.3938 44.3632 17.5311H45.864L45.9593 18.7483H45.9913C46.5604 17.8312 47.4241 17.3727 48.5831 17.3727C49.4892 17.3727 50.2456 17.7304 50.8507 18.4466C51.4551 19.1644 51.7584 20.107 51.7584 21.2762ZM50.0199 21.3386C50.0199 20.5912 49.8518 19.975 49.514 19.4893C49.145 18.9843 48.6495 18.7315 48.0284 18.7315C47.6074 18.7315 47.2248 18.8723 46.883 19.15C46.5404 19.4301 46.3163 19.7958 46.2114 20.2487C46.1646 20.4181 46.138 20.5924 46.1322 20.768V22.0492C46.1322 22.6069 46.3035 23.0783 46.6461 23.464C46.9886 23.8481 47.4337 24.0409 47.9812 24.0409C48.6239 24.0409 49.1242 23.7921 49.482 23.2983C49.8406 22.803 50.0199 22.15 50.0199 21.3386ZM60.5928 21.2762C60.5928 22.5821 60.2382 23.6144 59.5282 24.3722C58.8919 25.0468 58.1027 25.3837 57.1598 25.3837C56.1424 25.3837 55.4108 25.0212 54.9666 24.2946V28.3237H53.26V20.055C53.26 19.2348 53.2384 18.3938 53.1968 17.5311H54.6976L54.7929 18.7483H54.8249C55.3932 17.8312 56.2569 17.3727 57.4167 17.3727C58.322 17.3727 59.0784 17.7304 59.6851 18.4466C60.2886 19.1644 60.5928 20.107 60.5928 21.2762ZM58.8535 21.3386C58.8535 20.5912 58.6846 19.975 58.3468 19.4893C57.9778 18.9843 57.4839 18.7315 56.8628 18.7315C56.4418 18.7315 56.0592 18.8723 55.7158 19.15C55.3732 19.4301 55.1499 19.7958 55.045 20.2487C54.993 20.4599 54.965 20.632 54.965 20.768V22.0492C54.965 22.6069 55.1371 23.0783 55.478 23.464C55.8206 23.8473 56.2657 24.0409 56.8148 24.0409C57.4583 24.0409 57.9586 23.7921 58.3156 23.2983C58.6742 22.803 58.8535 22.15 58.8535 21.3386ZM70.4701 22.2228C70.4701 23.1295 70.1532 23.8665 69.5232 24.4354C68.8301 25.0564 67.8623 25.3677 66.6217 25.3677C65.4754 25.3677 64.5566 25.1468 63.8634 24.7043L64.258 23.2823C65.0064 23.7256 65.8284 23.9465 66.7233 23.9465C67.3669 23.9465 67.8671 23.8009 68.2241 23.512C68.5819 23.2223 68.7628 22.835 68.7628 22.3517C68.7628 21.9187 68.6131 21.5563 68.3194 21.261C68.024 20.9665 67.5358 20.692 66.8498 20.4399C64.9848 19.7445 64.0515 18.7275 64.0515 17.3895C64.0515 16.5157 64.3813 15.8003 65.0392 15.2409C65.6972 14.6824 66.5696 14.4031 67.655 14.4031C68.6244 14.4031 69.432 14.5719 70.0731 14.9088L69.6449 16.2996C69.0414 15.9731 68.3602 15.8099 67.5982 15.8099C66.9963 15.8099 66.524 15.9579 66.1862 16.2524C65.9021 16.5157 65.758 16.8365 65.758 17.2175C65.758 17.6376 65.9221 17.9865 66.2487 18.2601C66.532 18.5122 67.0491 18.7867 67.7967 19.0812C68.714 19.4509 69.388 19.8814 69.8194 20.3759C70.254 20.8705 70.4701 21.4874 70.4701 22.2228ZM76.1268 18.8115H74.2458V22.5397C74.2458 23.488 74.5772 23.9609 75.2415 23.9609C75.5465 23.9609 75.7994 23.9353 75.9995 23.8817L76.0468 25.1772C75.7106 25.3029 75.2679 25.3661 74.7196 25.3661C74.0457 25.3661 73.519 25.1604 73.1388 24.7491C72.7602 24.3378 72.5697 23.6488 72.5697 22.679V18.8083H71.4491V17.5279H72.5697V16.1219L74.2458 15.6162V17.5279H76.1268V18.8115ZM84.597 21.3074C84.597 22.4877 84.2592 23.4568 83.5852 24.2146C82.8801 24.9948 81.942 25.3837 80.7725 25.3837C79.6439 25.3837 78.7466 25.01 78.0775 24.2634C77.4083 23.5152 77.0737 22.5725 77.0737 21.4354C77.0737 20.2455 77.4195 19.2708 78.1087 18.513C78.7995 17.7544 79.7296 17.3751 80.899 17.3751C82.026 17.3751 82.9313 17.7496 83.6165 18.497C84.2712 19.222 84.597 20.1583 84.597 21.3074ZM82.828 21.3466C82.828 20.6432 82.6759 20.0398 82.371 19.5349C82.0132 18.9251 81.5009 18.6202 80.8374 18.6202C80.1538 18.6202 79.6295 18.9251 79.2725 19.5349C78.9667 20.0398 78.8147 20.6536 78.8147 21.3786C78.8147 22.0828 78.9667 22.6878 79.2725 23.1911C79.6415 23.8009 80.1562 24.1058 80.8229 24.1058C81.4753 24.1058 81.9868 23.7945 82.3566 23.1759C82.6703 22.659 82.828 22.0516 82.828 21.3466ZM90.1464 19.0316C89.9689 18.9995 89.7889 18.9837 89.6085 18.9843C89.0082 18.9843 88.5439 19.21 88.2173 19.6645C87.934 20.0646 87.7915 20.5704 87.7915 21.1809V25.2101H86.085V19.9494C86.0865 19.1433 86.07 18.3373 86.0354 17.5319H87.5218L87.5842 19.0011H87.6314C87.8123 18.4962 88.0957 18.0889 88.4847 17.784C88.8408 17.5176 89.2734 17.3733 89.7182 17.3727C89.8758 17.3727 90.0183 17.3839 90.1448 17.4039L90.1464 19.0316ZM97.7785 21.0073C97.7828 21.2667 97.7619 21.5258 97.7161 21.7811H92.5965C92.6157 22.5397 92.8639 23.1207 93.3393 23.5208C93.7707 23.8777 94.3287 24.0569 95.0138 24.0569C95.7718 24.0569 96.4634 23.9369 97.0853 23.6944L97.3527 24.878C96.6259 25.1949 95.7678 25.3525 94.7777 25.3525C93.5866 25.3525 92.6517 25.002 91.9714 24.3026C91.2926 23.6024 90.9524 22.6614 90.9524 21.4826C90.9524 20.3255 91.2686 19.3612 91.9017 18.5922C92.5645 17.7712 93.4602 17.3607 94.5872 17.3607C95.6942 17.3607 96.5322 17.7712 97.1013 18.5922C97.552 19.2428 97.7785 20.0494 97.7785 21.0073ZM96.1512 20.5648C96.1632 20.0582 96.0512 19.6221 95.8199 19.2532C95.5245 18.7779 95.0699 18.541 94.4607 18.541C93.9028 18.541 93.4482 18.7723 93.1024 19.2364C92.8182 19.6053 92.6493 20.0486 92.5973 20.5632L96.1512 20.5648Z" fill="white"/>
<path d="M36.1884 10.7958C35.7137 10.7958 35.3031 10.7726 34.9613 10.7334V5.58479C35.4393 5.51097 35.9224 5.47458 36.4061 5.47596C38.3631 5.47596 39.2644 6.43863 39.2644 8.00786C39.2644 9.81796 38.1999 10.7958 36.1884 10.7958ZM36.4749 6.13614C36.2108 6.13614 35.9859 6.15215 35.7994 6.19056V10.1044C35.9002 10.1204 36.0939 10.1276 36.3661 10.1276C37.6484 10.1276 38.3783 9.39784 38.3783 8.03107C38.3783 6.81233 37.718 6.13614 36.4749 6.13614ZM42.0731 10.835C40.9702 10.835 40.2554 10.0116 40.2554 8.8937C40.2554 7.72858 40.9854 6.89795 42.1356 6.89795C43.2226 6.89795 43.9534 7.68217 43.9534 8.83209C43.9534 10.0116 43.2002 10.835 42.0731 10.835ZM42.1052 7.51092C41.4992 7.51092 41.111 8.07748 41.111 8.8697C41.111 9.64671 41.5072 10.2133 42.0972 10.2133C42.6871 10.2133 43.0833 9.6075 43.0833 8.85369C43.0833 8.08548 42.6951 7.51092 42.1052 7.51092ZM50.2432 6.97557L49.0625 10.7494H48.2933L47.8042 9.11056C47.6826 8.70969 47.5814 8.30293 47.5009 7.89183H47.4849C47.4232 8.30314 47.3064 8.71526 47.1823 9.11056L46.662 10.7494H45.8848L44.7738 6.97557H45.6359L46.0633 8.76967C46.1642 9.19699 46.249 9.6003 46.3194 9.9812H46.3355C46.3971 9.66352 46.4979 9.26661 46.646 8.77767L47.1823 6.97638H47.8659L48.379 8.73926C48.503 9.16658 48.6039 9.5859 48.6823 9.982H48.7047C48.7592 9.5939 48.8448 9.18178 48.9609 8.73926L49.4195 6.97638L50.2432 6.97557ZM54.5895 10.7494H53.7507V8.58242C53.7507 7.91503 53.4945 7.58054 52.9894 7.58054C52.4924 7.58054 52.1506 8.00786 52.1506 8.5048V10.7494H51.3117V8.05427C51.3117 7.72058 51.3037 7.36288 51.2805 6.97477H52.0185L52.0578 7.55734H52.081C52.3067 7.15402 52.7645 6.89795 53.2776 6.89795C54.07 6.89795 54.5903 7.50372 54.5903 8.48959L54.5895 10.7494ZM56.9028 10.7494H56.0631V5.2439H56.9028V10.7494ZM59.9612 10.835C58.859 10.835 58.1434 10.0116 58.1434 8.8937C58.1434 7.72858 58.8734 6.89795 60.0229 6.89795C61.1106 6.89795 61.8406 7.68217 61.8406 8.83209C61.8414 10.0116 61.0874 10.835 59.9612 10.835ZM59.9924 7.51092C59.3865 7.51092 58.9983 8.07748 58.9983 8.8697C58.9983 9.64671 59.3953 10.2133 59.9836 10.2133C60.5744 10.2133 60.9698 9.6075 60.9698 8.85369C60.9706 8.08548 60.5832 7.51092 59.9924 7.51092ZM65.148 10.7494L65.0872 10.3149H65.0648C64.8086 10.6646 64.4348 10.835 63.961 10.835C63.2846 10.835 62.8044 10.3613 62.8044 9.72433C62.8044 8.79288 63.612 8.31114 65.0104 8.31114V8.24152C65.0104 7.74459 64.747 7.49572 64.2267 7.49572C63.8545 7.49572 63.528 7.58934 63.2406 7.7758L63.0701 7.22444C63.4191 7.00678 63.8545 6.89795 64.366 6.89795C65.3521 6.89795 65.85 7.4181 65.85 8.45918V9.84917C65.85 10.2301 65.8668 10.5254 65.9044 10.7502L65.148 10.7494ZM65.0328 8.8697C64.1011 8.8697 63.6336 9.09536 63.6336 9.63071C63.6336 10.0268 63.8745 10.2205 64.2091 10.2205C64.6358 10.2205 65.0328 9.89478 65.0328 9.45226V8.8697ZM69.9234 10.7494L69.8842 10.1436H69.861C69.62 10.6014 69.215 10.835 68.6491 10.835C67.739 10.835 67.0651 10.0348 67.0651 8.90891C67.0651 7.72858 67.7638 6.89715 68.718 6.89715C69.223 6.89715 69.5808 7.0676 69.7825 7.41009H69.7993V5.2439H70.639V9.73234C70.639 10.0972 70.6478 10.4389 70.6702 10.7494H69.9234ZM69.7993 8.5288C69.7993 8.00066 69.4496 7.55013 68.9157 7.55013C68.2937 7.55013 67.9135 8.10149 67.9135 8.8777C67.9135 9.63871 68.3081 10.1597 68.8989 10.1597C69.4263 10.1597 69.7993 9.70113 69.7993 9.15778V8.5288ZM75.9627 10.835C74.8605 10.835 74.1457 10.0116 74.1457 8.8937C74.1457 7.72858 74.8757 6.89795 76.0251 6.89795C77.1129 6.89795 77.8429 7.68217 77.8429 8.83209C77.8437 10.0116 77.0905 10.835 75.9627 10.835ZM75.9939 7.51092C75.3888 7.51092 75.0006 8.07748 75.0006 8.8697C75.0006 9.64671 75.3968 10.2133 75.9859 10.2133C76.5766 10.2133 76.972 9.6075 76.972 8.85369C76.9736 8.08548 76.5854 7.51092 75.9939 7.51092ZM82.3541 10.7494H81.5145V8.58242C81.5145 7.91503 81.2583 7.58054 80.7533 7.58054C80.2562 7.58054 79.9152 8.00786 79.9152 8.5048V10.7494H79.0756V8.05427C79.0756 7.72058 79.0676 7.36288 79.0443 6.97477H79.7823L79.8216 7.55734H79.8448C80.0697 7.15402 80.5283 6.89715 81.0406 6.89715C81.8331 6.89715 82.3541 7.50292 82.3541 8.48879V10.7494ZM87.998 7.60455H87.0751V9.43705C87.0751 9.90358 87.2368 10.1364 87.5633 10.1364C87.7114 10.1364 87.8355 10.1204 87.9356 10.0972L87.9588 10.7342C87.7963 10.7966 87.5786 10.8278 87.308 10.8278C86.6469 10.8278 86.2514 10.4629 86.2514 9.50747V7.60455H85.7007V6.97557H86.2514V6.28418L87.0751 6.03531V6.97477H87.998V7.60455ZM92.4388 10.7494H91.6007V8.59842C91.6007 7.92304 91.3454 7.58134 90.8395 7.58134C90.4049 7.58134 89.9999 7.87662 89.9999 8.47439V10.7494H89.1618V5.2439H89.9999V7.51092H90.0167C90.2808 7.09961 90.6634 6.89715 91.1517 6.89715C91.9505 6.89715 92.4388 7.51812 92.4388 8.5048V10.7494ZM96.9884 9.06415H94.4711C94.4871 9.77875 94.9602 10.1821 95.6605 10.1821C96.0327 10.1821 96.3753 10.1196 96.6779 10.0036L96.8083 10.5862C96.4514 10.7414 96.0311 10.819 95.5421 10.819C94.3614 10.819 93.6626 10.0732 93.6626 8.91691C93.6626 7.75979 94.3782 6.88995 95.4476 6.88995C96.4121 6.88995 97.0173 7.60455 97.0173 8.68405C97.0227 8.81144 97.013 8.93903 96.9884 9.06415ZM96.2192 8.46639C96.2192 7.88383 95.9255 7.47251 95.3892 7.47251C94.9073 7.47251 94.5263 7.89183 94.4719 8.46639H96.2192Z" fill="white"/>
<defs>
<linearGradient id="paint0_linear_404_320" x1="79.2099" y1="32.085" x2="79.2099" y2="-83.3226" gradientUnits="userSpaceOnUse">
<stop stop-color="#1A1A1A" stop-opacity="0.1"/>
<stop offset="0.123" stop-color="#212121" stop-opacity="0.151"/>
<stop offset="0.308" stop-color="#353535" stop-opacity="0.227"/>
<stop offset="0.532" stop-color="#575757" stop-opacity="0.318"/>
<stop offset="0.783" stop-color="#858585" stop-opacity="0.421"/>
<stop offset="1" stop-color="#B3B3B3" stop-opacity="0.51"/>
</linearGradient>
</defs>
</svg>
