<svg width="24" height="24" viewBox="0 0 24 24" fill="none" xmlns="http://www.w3.org/2000/svg">
<path d="M21.75 17.2501C21.75 17.449 21.671 17.6397 21.5303 17.7804C21.3897 17.921 21.1989 18.0001 21 18.0001C20.8011 18.0001 20.6103 17.921 20.4697 17.7804C20.329 17.6397 20.25 17.449 20.25 17.2501C20.2498 15.6185 19.7658 14.0236 18.8593 12.6671C17.9528 11.3106 16.6644 10.2533 15.157 9.629C13.6496 9.00466 11.991 8.84128 10.3908 9.15953C8.79057 9.47777 7.32065 10.2633 6.16687 11.4169L4.06875 13.5001H8.25C8.44891 13.5001 8.63968 13.5791 8.78033 13.7197C8.92098 13.8604 9 14.0511 9 14.2501C9 14.449 8.92098 14.6397 8.78033 14.7804C8.63968 14.921 8.44891 15.0001 8.25 15.0001H2.25C2.05109 15.0001 1.86032 14.921 1.71967 14.7804C1.57902 14.6397 1.5 14.449 1.5 14.2501V8.25005C1.5 8.05114 1.57902 7.86037 1.71967 7.71972C1.86032 7.57907 2.05109 7.50005 2.25 7.50005C2.44891 7.50005 2.63968 7.57907 2.78033 7.71972C2.92098 7.86037 3 8.05114 3 8.25005V12.4472L5.1075 10.3538C6.47127 8.99074 8.20858 8.06264 10.0998 7.68685C11.991 7.31106 13.9511 7.50445 15.7324 8.24257C17.5137 8.9807 19.0361 10.2304 20.1073 11.8337C21.1784 13.437 21.75 15.3219 21.75 17.2501Z" fill="#0065FF"/>
</svg>
