<svg width="10" height="10" viewBox="0 0 10 10" fill="none" xmlns="http://www.w3.org/2000/svg">
<g id="ArrowRight">
<path id="Vector" d="M8.65859 5.22102L5.84609 8.03352C5.78746 8.09216 5.70793 8.1251 5.625 8.1251C5.54207 8.1251 5.46254 8.09216 5.40391 8.03352C5.34527 7.97489 5.31233 7.89536 5.31233 7.81243C5.31233 7.7295 5.34527 7.64997 5.40391 7.59134L7.6832 5.31243H1.5625C1.47962 5.31243 1.40013 5.27951 1.34153 5.2209C1.28292 5.1623 1.25 5.08281 1.25 4.99993C1.25 4.91705 1.28292 4.83756 1.34153 4.77896C1.40013 4.72035 1.47962 4.68743 1.5625 4.68743H7.6832L5.40391 2.40852C5.34527 2.34989 5.31233 2.27036 5.31233 2.18743C5.31233 2.1045 5.34527 2.02497 5.40391 1.96634C5.46254 1.9077 5.54207 1.87476 5.625 1.87476C5.70793 1.87476 5.78746 1.9077 5.84609 1.96634L8.65859 4.77884C8.68765 4.80786 8.7107 4.84232 8.72643 4.88026C8.74215 4.9182 8.75025 4.95886 8.75025 4.99993C8.75025 5.041 8.74215 5.08166 8.72643 5.1196C8.7107 5.15754 8.68765 5.192 8.65859 5.22102Z" fill="#AD2E24"/>
</g>
</svg>
