<svg width="16" height="12" viewBox="0 0 16 12" fill="none" xmlns="http://www.w3.org/2000/svg">
<path id="Vector" d="M14.7692 0H1.23077C0.904349 0 0.591298 0.126428 0.360484 0.351472C0.12967 0.576515 0 0.88174 0 1.2V10.8C0 11.1183 0.12967 11.4235 0.360484 11.6485C0.591298 11.8736 0.904349 12 1.23077 12H14.7692C15.0957 12 15.4087 11.8736 15.6395 11.6485C15.8703 11.4235 16 11.1183 16 10.8V1.2C16 0.88174 15.8703 0.576515 15.6395 0.351472C15.4087 0.126428 15.0957 0 14.7692 0ZM6.15385 7.2V4.8H9.84615V7.2H6.15385ZM9.84615 8.4V10.8H6.15385V8.4H9.84615ZM1.23077 4.8H4.92308V7.2H1.23077V4.8ZM6.15385 3.6V1.2H9.84615V3.6H6.15385ZM11.0769 4.8H14.7692V7.2H11.0769V4.8ZM14.7692 3.6H11.0769V1.2H14.7692V3.6ZM4.92308 1.2V3.6H1.23077V1.2H4.92308ZM1.23077 8.4H4.92308V10.8H1.23077V8.4ZM14.7692 10.8H11.0769V8.4H14.7692V10.8Z" fill="black"/>
</svg>
