<svg width="24" height="19" viewBox="0 0 24 19" fill="none" xmlns="http://www.w3.org/2000/svg">
<path d="M22.5 7H19.5C19.5 6.80109 19.421 6.61033 19.2803 6.46967C19.1397 6.32902 18.9489 6.25 18.75 6.25H12.75C12.5511 6.25 12.3603 6.32902 12.2197 6.46967C12.079 6.61033 12 6.80109 12 7H6V2.875C6 2.57664 6.11853 2.29049 6.3295 2.07951C6.54048 1.86853 6.82663 1.75 7.125 1.75C7.38867 1.74893 7.64493 1.83723 7.85196 2.00051C8.059 2.16379 8.2046 2.3924 8.265 2.64907C8.3062 2.84235 8.42202 3.01156 8.58729 3.11992C8.75255 3.22828 8.95391 3.26703 9.14759 3.22775C9.34127 3.18847 9.51162 3.07433 9.62162 2.91015C9.73161 2.74596 9.77236 2.545 9.735 2.35094C9.60766 1.75414 9.27862 1.21942 8.80326 0.836773C8.3279 0.454127 7.73523 0.246912 7.125 0.250004C6.42881 0.250004 5.76113 0.526565 5.26884 1.01885C4.77656 1.51113 4.5 2.17881 4.5 2.875V7H1.5C1.30109 7 1.11032 7.07902 0.96967 7.21967C0.829018 7.36033 0.75 7.55109 0.75 7.75V11.5C0.751489 12.8919 1.30509 14.2264 2.28933 15.2107C3.27358 16.1949 4.60807 16.7485 6 16.75V18.25C6 18.4489 6.07902 18.6397 6.21967 18.7803C6.36032 18.921 6.55109 19 6.75 19C6.94891 19 7.13968 18.921 7.28033 18.7803C7.42098 18.6397 7.5 18.4489 7.5 18.25V16.75H16.5V18.25C16.5 18.4489 16.579 18.6397 16.7197 18.7803C16.8603 18.921 17.0511 19 17.25 19C17.4489 19 17.6397 18.921 17.7803 18.7803C17.921 18.6397 18 18.4489 18 18.25V16.75C19.3919 16.7485 20.7264 16.1949 21.7107 15.2107C22.6949 14.2264 23.2485 12.8919 23.25 11.5V7.75C23.25 7.55109 23.171 7.36033 23.0303 7.21967C22.8897 7.07902 22.6989 7 22.5 7ZM18 7.75V10.75H13.5V7.75H18ZM21.75 11.5C21.75 11.9925 21.653 12.4801 21.4645 12.9351C21.2761 13.39 20.9999 13.8034 20.6516 14.1517C20.3034 14.4999 19.89 14.7761 19.4351 14.9646C18.9801 15.153 18.4925 15.25 18 15.25H6C5.00544 15.25 4.05161 14.8549 3.34835 14.1517C2.64509 13.4484 2.25 12.4946 2.25 11.5V8.5H12V11.5C12 11.6989 12.079 11.8897 12.2197 12.0303C12.3603 12.171 12.5511 12.25 12.75 12.25H18.75C18.9489 12.25 19.1397 12.171 19.2803 12.0303C19.421 11.8897 19.5 11.6989 19.5 11.5V8.5H21.75V11.5Z" fill="black"/>
</svg>
