<svg width="17" height="16" viewBox="0 0 17 16" fill="none" xmlns="http://www.w3.org/2000/svg">
<g id="Building">
<path id="Vector" d="M15.4395 14H13.9395V2H14.4395C14.5721 2 14.6992 1.94732 14.793 1.85355C14.8868 1.75979 14.9395 1.63261 14.9395 1.5C14.9395 1.36739 14.8868 1.24021 14.793 1.14645C14.6992 1.05268 14.5721 1 14.4395 1H3.43945C3.30684 1 3.17967 1.05268 3.0859 1.14645C2.99213 1.24021 2.93945 1.36739 2.93945 1.5C2.93945 1.63261 2.99213 1.75979 3.0859 1.85355C3.17967 1.94732 3.30684 2 3.43945 2H3.93945V14H2.43945C2.30684 14 2.17967 14.0527 2.0859 14.1464C1.99213 14.2402 1.93945 14.3674 1.93945 14.5C1.93945 14.6326 1.99213 14.7598 2.0859 14.8536C2.17967 14.9473 2.30684 15 2.43945 15H15.4395C15.5721 15 15.6992 14.9473 15.793 14.8536C15.8868 14.7598 15.9395 14.6326 15.9395 14.5C15.9395 14.3674 15.8868 14.2402 15.793 14.1464C15.6992 14.0527 15.5721 14 15.4395 14ZM4.93945 2H12.9395V14H10.9395V11.5C10.9395 11.3674 10.8868 11.2402 10.793 11.1464C10.6992 11.0527 10.5721 11 10.4395 11H7.43945C7.30684 11 7.17967 11.0527 7.0859 11.1464C6.99213 11.2402 6.93945 11.3674 6.93945 11.5V14H4.93945V2ZM9.93945 14H7.93945V12H9.93945V14ZM6.43945 4C6.43945 3.86739 6.49213 3.74021 6.5859 3.64645C6.67967 3.55268 6.80684 3.5 6.93945 3.5H7.93945C8.07206 3.5 8.19924 3.55268 8.29301 3.64645C8.38677 3.74021 8.43945 3.86739 8.43945 4C8.43945 4.13261 8.38677 4.25979 8.29301 4.35355C8.19924 4.44732 8.07206 4.5 7.93945 4.5H6.93945C6.80684 4.5 6.67967 4.44732 6.5859 4.35355C6.49213 4.25979 6.43945 4.13261 6.43945 4ZM9.43945 4C9.43945 3.86739 9.49213 3.74021 9.5859 3.64645C9.67967 3.55268 9.80684 3.5 9.93945 3.5H10.9395C11.0721 3.5 11.1992 3.55268 11.293 3.64645C11.3868 3.74021 11.4395 3.86739 11.4395 4C11.4395 4.13261 11.3868 4.25979 11.293 4.35355C11.1992 4.44732 11.0721 4.5 10.9395 4.5H9.93945C9.80684 4.5 9.67967 4.44732 9.5859 4.35355C9.49213 4.25979 9.43945 4.13261 9.43945 4ZM6.43945 6.5C6.43945 6.36739 6.49213 6.24021 6.5859 6.14645C6.67967 6.05268 6.80684 6 6.93945 6H7.93945C8.07206 6 8.19924 6.05268 8.29301 6.14645C8.38677 6.24021 8.43945 6.36739 8.43945 6.5C8.43945 6.63261 8.38677 6.75979 8.29301 6.85355C8.19924 6.94732 8.07206 7 7.93945 7H6.93945C6.80684 7 6.67967 6.94732 6.5859 6.85355C6.49213 6.75979 6.43945 6.63261 6.43945 6.5ZM9.43945 6.5C9.43945 6.36739 9.49213 6.24021 9.5859 6.14645C9.67967 6.05268 9.80684 6 9.93945 6H10.9395C11.0721 6 11.1992 6.05268 11.293 6.14645C11.3868 6.24021 11.4395 6.36739 11.4395 6.5C11.4395 6.63261 11.3868 6.75979 11.293 6.85355C11.1992 6.94732 11.0721 7 10.9395 7H9.93945C9.80684 7 9.67967 6.94732 9.5859 6.85355C9.49213 6.75979 9.43945 6.63261 9.43945 6.5ZM6.43945 9C6.43945 8.86739 6.49213 8.74021 6.5859 8.64645C6.67967 8.55268 6.80684 8.5 6.93945 8.5H7.93945C8.07206 8.5 8.19924 8.55268 8.29301 8.64645C8.38677 8.74021 8.43945 8.86739 8.43945 9C8.43945 9.13261 8.38677 9.25979 8.29301 9.35355C8.19924 9.44732 8.07206 9.5 7.93945 9.5H6.93945C6.80684 9.5 6.67967 9.44732 6.5859 9.35355C6.49213 9.25979 6.43945 9.13261 6.43945 9ZM9.43945 9C9.43945 8.86739 9.49213 8.74021 9.5859 8.64645C9.67967 8.55268 9.80684 8.5 9.93945 8.5H10.9395C11.0721 8.5 11.1992 8.55268 11.293 8.64645C11.3868 8.74021 11.4395 8.86739 11.4395 9C11.4395 9.13261 11.3868 9.25979 11.293 9.35355C11.1992 9.44732 11.0721 9.5 10.9395 9.5H9.93945C9.80684 9.5 9.67967 9.44732 9.5859 9.35355C9.49213 9.25979 9.43945 9.13261 9.43945 9Z" fill="black"/>
</g>
</svg>
