<svg width="17" height="16" viewBox="0 0 17 16" fill="none" xmlns="http://www.w3.org/2000/svg">
<g id="BuildingApartment" clip-path="url(#clip0_312_842)">
<path id="Vector" d="M15.9395 13H15.4395V4.5C15.4395 4.36739 15.3868 4.24021 15.293 4.14645C15.1992 4.05268 15.0721 4 14.9395 4H12.4395V2.5C12.4395 2.36739 12.3868 2.24021 12.293 2.14645C12.1992 2.05268 12.0721 2 11.9395 2H5.93945C5.80684 2 5.67967 2.05268 5.5859 2.14645C5.49213 2.24021 5.43945 2.36739 5.43945 2.5V6H2.93945C2.80684 6 2.67967 6.05268 2.5859 6.14645C2.49213 6.24021 2.43945 6.36739 2.43945 6.5V13H1.93945C1.80684 13 1.67967 13.0527 1.5859 13.1464C1.49213 13.2402 1.43945 13.3674 1.43945 13.5C1.43945 13.6326 1.49213 13.7598 1.5859 13.8536C1.67967 13.9473 1.80684 14 1.93945 14H15.9395C16.0721 14 16.1992 13.9473 16.293 13.8536C16.3868 13.7598 16.4395 13.6326 16.4395 13.5C16.4395 13.3674 16.3868 13.2402 16.293 13.1464C16.1992 13.0527 16.0721 13 15.9395 13ZM3.43945 7H5.93945C6.07206 7 6.19924 6.94732 6.29301 6.85355C6.38677 6.75979 6.43945 6.63261 6.43945 6.5V3H11.4395V4.5C11.4395 4.63261 11.4921 4.75979 11.5859 4.85355C11.6797 4.94732 11.8068 5 11.9395 5H14.4395V13H10.4395V10.5C10.4395 10.3674 10.3868 10.2402 10.293 10.1464C10.1992 10.0527 10.0721 10 9.93945 10H7.93945C7.80684 10 7.67967 10.0527 7.5859 10.1464C7.49213 10.2402 7.43945 10.3674 7.43945 10.5V13H3.43945V7ZM9.43945 13H8.43945V11H9.43945V13ZM7.93945 4.5C7.93945 4.36739 7.99213 4.24021 8.0859 4.14645C8.17967 4.05268 8.30684 4 8.43945 4H9.43945C9.57206 4 9.69924 4.05268 9.79301 4.14645C9.88678 4.24021 9.93945 4.36739 9.93945 4.5C9.93945 4.63261 9.88678 4.75979 9.79301 4.85355C9.69924 4.94732 9.57206 5 9.43945 5H8.43945C8.30684 5 8.17967 4.94732 8.0859 4.85355C7.99213 4.75979 7.93945 4.63261 7.93945 4.5ZM7.93945 6.5C7.93945 6.36739 7.99213 6.24021 8.0859 6.14645C8.17967 6.05268 8.30684 6 8.43945 6H9.43945C9.57206 6 9.69924 6.05268 9.79301 6.14645C9.88678 6.24021 9.93945 6.36739 9.93945 6.5C9.93945 6.63261 9.88678 6.75979 9.79301 6.85355C9.69924 6.94732 9.57206 7 9.43945 7H8.43945C8.30684 7 8.17967 6.94732 8.0859 6.85355C7.99213 6.75979 7.93945 6.63261 7.93945 6.5ZM11.4395 6.5C11.4395 6.36739 11.4921 6.24021 11.5859 6.14645C11.6797 6.05268 11.8068 6 11.9395 6H12.9395C13.0721 6 13.1992 6.05268 13.293 6.14645C13.3868 6.24021 13.4395 6.36739 13.4395 6.5C13.4395 6.63261 13.3868 6.75979 13.293 6.85355C13.1992 6.94732 13.0721 7 12.9395 7H11.9395C11.8068 7 11.6797 6.94732 11.5859 6.85355C11.4921 6.75979 11.4395 6.63261 11.4395 6.5ZM6.43945 8.5C6.43945 8.63261 6.38677 8.75979 6.29301 8.85355C6.19924 8.94732 6.07206 9 5.93945 9H4.93945C4.80684 9 4.67967 8.94732 4.5859 8.85355C4.49213 8.75979 4.43945 8.63261 4.43945 8.5C4.43945 8.36739 4.49213 8.24021 4.5859 8.14645C4.67967 8.05268 4.80684 8 4.93945 8H5.93945C6.07206 8 6.19924 8.05268 6.29301 8.14645C6.38677 8.24021 6.43945 8.36739 6.43945 8.5ZM6.43945 10.5C6.43945 10.6326 6.38677 10.7598 6.29301 10.8536C6.19924 10.9473 6.07206 11 5.93945 11H4.93945C4.80684 11 4.67967 10.9473 4.5859 10.8536C4.49213 10.7598 4.43945 10.6326 4.43945 10.5C4.43945 10.3674 4.49213 10.2402 4.5859 10.1464C4.67967 10.0527 4.80684 10 4.93945 10H5.93945C6.07206 10 6.19924 10.0527 6.29301 10.1464C6.38677 10.2402 6.43945 10.3674 6.43945 10.5ZM7.93945 8.5C7.93945 8.36739 7.99213 8.24021 8.0859 8.14645C8.17967 8.05268 8.30684 8 8.43945 8H9.43945C9.57206 8 9.69924 8.05268 9.79301 8.14645C9.88678 8.24021 9.93945 8.36739 9.93945 8.5C9.93945 8.63261 9.88678 8.75979 9.79301 8.85355C9.69924 8.94732 9.57206 9 9.43945 9H8.43945C8.30684 9 8.17967 8.94732 8.0859 8.85355C7.99213 8.75979 7.93945 8.63261 7.93945 8.5ZM11.4395 8.5C11.4395 8.36739 11.4921 8.24021 11.5859 8.14645C11.6797 8.05268 11.8068 8 11.9395 8H12.9395C13.0721 8 13.1992 8.05268 13.293 8.14645C13.3868 8.24021 13.4395 8.36739 13.4395 8.5C13.4395 8.63261 13.3868 8.75979 13.293 8.85355C13.1992 8.94732 13.0721 9 12.9395 9H11.9395C11.8068 9 11.6797 8.94732 11.5859 8.85355C11.4921 8.75979 11.4395 8.63261 11.4395 8.5ZM11.4395 10.5C11.4395 10.3674 11.4921 10.2402 11.5859 10.1464C11.6797 10.0527 11.8068 10 11.9395 10H12.9395C13.0721 10 13.1992 10.0527 13.293 10.1464C13.3868 10.2402 13.4395 10.3674 13.4395 10.5C13.4395 10.6326 13.3868 10.7598 13.293 10.8536C13.1992 10.9473 13.0721 11 12.9395 11H11.9395C11.8068 11 11.6797 10.9473 11.5859 10.8536C11.4921 10.7598 11.4395 10.6326 11.4395 10.5Z" fill="black"/>
</g>
<defs>
<clipPath id="clip0_312_842">
<rect width="16" height="16" fill="white" transform="translate(0.939453)"/>
</clipPath>
</defs>
</svg>
