<svg width="16" height="16" viewBox="0 0 16 16" fill="none" xmlns="http://www.w3.org/2000/svg">
<path d="M15.2806 14.2194C15.3503 14.2891 15.4056 14.3718 15.4433 14.4628C15.481 14.5539 15.5004 14.6515 15.5004 14.75C15.5004 14.8486 15.481 14.9461 15.4433 15.0372C15.4056 15.1282 15.3503 15.2109 15.2806 15.2806C15.2109 15.3503 15.1282 15.4056 15.0372 15.4433C14.9461 15.481 14.8486 15.5004 14.75 15.5004C14.6515 15.5004 14.5539 15.481 14.4628 15.4433C14.3718 15.4056 14.2891 15.3503 14.2194 15.2806L8.00001 9.06032L1.78063 15.2806C1.6399 15.4214 1.44903 15.5004 1.25001 15.5004C1.05098 15.5004 0.860111 15.4214 0.71938 15.2806C0.57865 15.1399 0.499588 14.949 0.499588 14.75C0.499588 14.551 0.57865 14.3601 0.71938 14.2194L6.93969 8.00001L0.71938 1.78063C0.57865 1.6399 0.499588 1.44903 0.499588 1.25001C0.499588 1.05098 0.57865 0.860111 0.71938 0.71938C0.860111 0.57865 1.05098 0.499588 1.25001 0.499588C1.44903 0.499588 1.6399 0.57865 1.78063 0.71938L8.00001 6.93969L14.2194 0.71938C14.3601 0.57865 14.551 0.499588 14.75 0.499588C14.949 0.499588 15.1399 0.57865 15.2806 0.71938C15.4214 0.860111 15.5004 1.05098 15.5004 1.25001C15.5004 1.44903 15.4214 1.6399 15.2806 1.78063L9.06032 8.00001L15.2806 14.2194Z" fill="#FF3A44"/>
</svg>
