<svg width="11" height="12" viewBox="0 0 11 12" fill="none" xmlns="http://www.w3.org/2000/svg">
<g id="CurrencyCircleDollar">
<path id="Vector" d="M5.5 1.2251C4.61617 1.2251 3.75218 1.48719 3.0173 1.97822C2.28242 2.46925 1.70964 3.16717 1.37142 3.98373C1.03319 4.80029 0.94469 5.69881 1.11712 6.56566C1.28955 7.43251 1.71515 8.22877 2.34012 8.85373C2.96508 9.4787 3.76134 9.9043 4.62819 10.0767C5.49504 10.2492 6.39356 10.1607 7.21012 9.82243C8.02668 9.48421 8.7246 8.91143 9.21563 8.17655C9.70666 7.44167 9.96875 6.57768 9.96875 5.69385C9.9675 4.50905 9.49629 3.37313 8.6585 2.53535C7.82072 1.69756 6.6848 1.22635 5.5 1.2251ZM5.5 9.4751C4.75214 9.4751 4.02108 9.25333 3.39925 8.83784C2.77743 8.42235 2.29278 7.8318 2.00658 7.14087C1.72039 6.44994 1.64551 5.68965 1.79141 4.95616C1.93731 4.22267 2.29744 3.54892 2.82625 3.0201C3.35507 2.49128 4.02883 2.13115 4.76232 1.98525C5.49581 1.83935 6.25609 1.91423 6.94702 2.20043C7.63796 2.48662 8.22851 2.97127 8.644 3.5931C9.05949 4.21492 9.28125 4.94599 9.28125 5.69385C9.28012 6.69635 8.88137 7.65746 8.17249 8.36634C7.46362 9.07521 6.5025 9.47396 5.5 9.4751ZM7.21875 6.55322C7.21875 6.87231 7.09199 7.17833 6.86636 7.40396C6.64074 7.62959 6.33472 7.75635 6.01563 7.75635H5.84375V8.1001C5.84375 8.19127 5.80754 8.2787 5.74307 8.34317C5.6786 8.40763 5.59117 8.44385 5.5 8.44385C5.40883 8.44385 5.3214 8.40763 5.25693 8.34317C5.19247 8.2787 5.15625 8.19127 5.15625 8.1001V7.75635H4.46875C4.37758 7.75635 4.29015 7.72013 4.22568 7.65567C4.16122 7.5912 4.125 7.50377 4.125 7.4126C4.125 7.32143 4.16122 7.23399 4.22568 7.16953C4.29015 7.10506 4.37758 7.06885 4.46875 7.06885H6.01563C6.15238 7.06885 6.28353 7.01452 6.38023 6.91782C6.47693 6.82113 6.53125 6.68997 6.53125 6.55322C6.53125 6.41647 6.47693 6.28532 6.38023 6.18862C6.28353 6.09192 6.15238 6.0376 6.01563 6.0376H4.98438C4.66529 6.0376 4.35927 5.91084 4.13364 5.68521C3.90801 5.45958 3.78125 5.15356 3.78125 4.83447C3.78125 4.51538 3.90801 4.20936 4.13364 3.98373C4.35927 3.75811 4.66529 3.63135 4.98438 3.63135H5.15625V3.2876C5.15625 3.19643 5.19247 3.109 5.25693 3.04453C5.3214 2.98006 5.40883 2.94385 5.5 2.94385C5.59117 2.94385 5.6786 2.98006 5.74307 3.04453C5.80754 3.109 5.84375 3.19643 5.84375 3.2876V3.63135H6.53125C6.62242 3.63135 6.70985 3.66756 6.77432 3.73203C6.83879 3.7965 6.875 3.88393 6.875 3.9751C6.875 4.06627 6.83879 4.1537 6.77432 4.21817C6.70985 4.28263 6.62242 4.31885 6.53125 4.31885H4.98438C4.84762 4.31885 4.71647 4.37317 4.61978 4.46987C4.52308 4.56657 4.46875 4.69772 4.46875 4.83447C4.46875 4.97123 4.52308 5.10238 4.61978 5.19907C4.71647 5.29577 4.84762 5.3501 4.98438 5.3501H6.01563C6.33472 5.3501 6.64074 5.47685 6.86636 5.70248C7.09199 5.92811 7.21875 6.23413 7.21875 6.55322Z" fill="black"/>
</g>
</svg>
