<svg width="19" height="19" viewBox="0 0 19 19" fill="none" xmlns="http://www.w3.org/2000/svg">
<path d="M18.3696 4.79894L14.1808 0.609253C14.0415 0.469929 13.8762 0.359409 13.6942 0.284006C13.5121 0.208602 13.3171 0.169792 13.1201 0.169792C12.923 0.169792 12.728 0.208602 12.5459 0.284006C12.3639 0.359409 12.1986 0.469929 12.0593 0.609253L0.49896 12.1705C0.359066 12.3093 0.248154 12.4745 0.172672 12.6565C0.0971897 12.8385 0.0586432 13.0338 0.0592727 13.2308V17.4205C0.0592727 17.8183 0.217308 18.1999 0.498612 18.4812C0.779917 18.7625 1.16145 18.9205 1.55927 18.9205H5.74896C5.94602 18.9211 6.14123 18.8826 6.32326 18.8071C6.50528 18.7316 6.67049 18.6207 6.80927 18.4808L18.3696 6.9205C18.5089 6.78121 18.6194 6.61584 18.6948 6.43383C18.7702 6.25181 18.809 6.05673 18.809 5.85972C18.809 5.66271 18.7702 5.46763 18.6948 5.28562C18.6194 5.10361 18.5089 4.93823 18.3696 4.79894ZM5.74896 17.4205H1.55927V13.2308L9.80927 4.98081L13.999 9.1705L5.74896 17.4205ZM15.0593 8.10925L10.8696 3.9205L13.1196 1.6705L17.3093 5.85925L15.0593 8.10925Z" fill="black"/>
</svg>
