<svg width="24" height="18" viewBox="0 0 24 18" fill="none" xmlns="http://www.w3.org/2000/svg">
<path d="M20.25 5.325V3.75C20.25 2.75544 19.8549 1.80161 19.1517 1.09835C18.4484 0.395088 17.4946 0 16.5 0H7.50001C6.50544 0 5.55162 0.395088 4.84836 1.09835C4.14509 1.80161 3.75001 2.75544 3.75001 3.75V5.325C2.90229 5.49714 2.14015 5.95705 1.59272 6.62681C1.0453 7.29657 0.746246 8.13498 0.746246 9C0.746246 9.86502 1.0453 10.7034 1.59272 11.3732C2.14015 12.043 2.90229 12.5029 3.75001 12.675V15.75C3.75001 16.1478 3.90804 16.5294 4.18935 16.8107C4.47065 17.092 4.85218 17.25 5.25001 17.25H18.75C19.1478 17.25 19.5294 17.092 19.8107 16.8107C20.092 16.5294 20.25 16.1478 20.25 15.75V12.675C21.0977 12.5029 21.8599 12.043 22.4073 11.3732C22.9547 10.7034 23.2538 9.86502 23.2538 9C23.2538 8.13498 22.9547 7.29657 22.4073 6.62681C21.8599 5.95705 21.0977 5.49714 20.25 5.325ZM7.50001 1.5H16.5C17.0967 1.5 17.669 1.73705 18.091 2.15901C18.513 2.58097 18.75 3.15326 18.75 3.75V5.325C17.9035 5.49904 17.143 5.95959 16.5965 6.62903C16.05 7.29846 15.7511 8.13584 15.75 9H8.25001C8.24895 8.13584 7.94999 7.29846 7.40351 6.62903C6.85703 5.95959 6.09646 5.49904 5.25001 5.325V3.75C5.25001 3.15326 5.48706 2.58097 5.90902 2.15901C6.33097 1.73705 6.90327 1.5 7.50001 1.5ZM19.5366 11.25H19.5C19.3011 11.25 19.1103 11.329 18.9697 11.4697C18.829 11.6103 18.75 11.8011 18.75 12V15.75H5.25001V12C5.25001 11.8011 5.17099 11.6103 5.03034 11.4697C4.88968 11.329 4.69892 11.25 4.50001 11.25H4.46344C4.02006 11.2428 3.5887 11.1047 3.22353 10.8532C2.85836 10.6016 2.57567 10.2477 2.41096 9.83601C2.24626 9.42429 2.20689 8.97308 2.29779 8.53906C2.38869 8.10504 2.60581 7.70756 2.92189 7.39654C3.23796 7.08552 3.6389 6.87483 4.07433 6.79093C4.50976 6.70704 4.96027 6.75368 5.36928 6.925C5.77828 7.09632 6.12755 7.38467 6.3732 7.75385C6.61886 8.12303 6.74995 8.55656 6.75001 9V12.75C6.75001 12.9489 6.82902 13.1397 6.96968 13.2803C7.11033 13.421 7.30109 13.5 7.50001 13.5C7.69892 13.5 7.88968 13.421 8.03034 13.2803C8.17099 13.1397 8.25001 12.9489 8.25001 12.75V10.5H15.75V12.75C15.75 12.9489 15.829 13.1397 15.9697 13.2803C16.1103 13.421 16.3011 13.5 16.5 13.5C16.6989 13.5 16.8897 13.421 17.0303 13.2803C17.171 13.1397 17.25 12.9489 17.25 12.75V9C17.2501 8.55656 17.3812 8.12303 17.6268 7.75385C17.8725 7.38467 18.2217 7.09632 18.6307 6.925C19.0397 6.75368 19.4903 6.70704 19.9257 6.79093C20.3611 6.87483 20.762 7.08552 21.0781 7.39654C21.3942 7.70756 21.6113 8.10504 21.7022 8.53906C21.7931 8.97308 21.7538 9.42429 21.589 9.83601C21.4243 10.2477 21.1417 10.6016 20.7765 10.8532C20.4113 11.1047 19.9799 11.2428 19.5366 11.25Z" fill="black"/>
</svg>
