<svg width="18" height="18" viewBox="0 0 18 18" fill="none" xmlns="http://www.w3.org/2000/svg">
<path d="M16.5 0H4.5C4.10218 0 3.72064 0.158035 3.43934 0.43934C3.15804 0.720644 3 1.10218 3 1.5V3H1.5C1.10218 3 0.720644 3.15804 0.43934 3.43934C0.158035 3.72064 0 4.10218 0 4.5V16.5C0 16.8978 0.158035 17.2794 0.43934 17.5607C0.720644 17.842 1.10218 18 1.5 18H13.5C13.8978 18 14.2794 17.842 14.5607 17.5607C14.842 17.2794 15 16.8978 15 16.5V15H16.5C16.8978 15 17.2794 14.842 17.5607 14.5607C17.842 14.2794 18 13.8978 18 13.5V1.5C18 1.10218 17.842 0.720644 17.5607 0.43934C17.2794 0.158035 16.8978 0 16.5 0ZM4.5 1.5H16.5V8.00437L14.9344 6.43875C14.6531 6.15766 14.2717 5.99976 13.8741 5.99976C13.4764 5.99976 13.095 6.15766 12.8137 6.43875L5.75344 13.5H4.5V1.5ZM13.5 16.5H1.5V4.5H3V13.5C3 13.8978 3.15804 14.2794 3.43934 14.5607C3.72064 14.842 4.10218 15 4.5 15H13.5V16.5ZM16.5 13.5H7.875L13.875 7.5L16.5 10.125V13.5ZM8.25 7.5C8.69501 7.5 9.13002 7.36804 9.50003 7.12081C9.87004 6.87357 10.1584 6.52217 10.3287 6.11104C10.499 5.6999 10.5436 5.2475 10.4568 4.81105C10.37 4.37459 10.1557 3.97368 9.84099 3.65901C9.52632 3.34434 9.12541 3.13005 8.68895 3.04323C8.2525 2.95642 7.8001 3.00097 7.38896 3.17127C6.97783 3.34157 6.62643 3.62996 6.37919 3.99997C6.13196 4.36998 6 4.80499 6 5.25C6 5.84674 6.23705 6.41903 6.65901 6.84099C7.08097 7.26295 7.65326 7.5 8.25 7.5ZM8.25 4.5C8.39834 4.5 8.54334 4.54399 8.66668 4.6264C8.79001 4.70881 8.88614 4.82594 8.94291 4.96299C8.99968 5.10003 9.01453 5.25083 8.98559 5.39632C8.95665 5.5418 8.88522 5.67544 8.78033 5.78033C8.67544 5.88522 8.5418 5.95665 8.39632 5.98559C8.25083 6.01453 8.10003 5.99968 7.96299 5.94291C7.82594 5.88614 7.70881 5.79001 7.6264 5.66668C7.54399 5.54334 7.5 5.39834 7.5 5.25C7.5 5.05109 7.57902 4.86032 7.71967 4.71967C7.86032 4.57902 8.05109 4.5 8.25 4.5Z" fill="white"/>
</svg>
