<svg width="11" height="13" viewBox="0 0 11 13" fill="none" xmlns="http://www.w3.org/2000/svg">
<g id="Vector">
<path id="Vector_2" d="M5.5 2.78574C5.00555 2.78574 4.5222 2.92189 4.11107 3.17698C3.69995 3.43206 3.37952 3.79462 3.1903 4.21881C3.00108 4.643 2.95157 5.10977 3.04804 5.56009C3.1445 6.0104 3.3826 6.42405 3.73223 6.74871C4.08186 7.07337 4.52732 7.29447 5.01227 7.38404C5.49723 7.47361 5.99989 7.42764 6.45671 7.25194C6.91352 7.07623 7.30397 6.77868 7.57867 6.39692C7.85338 6.01516 8 5.56633 8 5.10719C8 4.49151 7.73661 3.90104 7.26777 3.46568C6.79893 3.03032 6.16304 2.78574 5.5 2.78574ZM5.5 6.50006C5.20333 6.50006 4.91332 6.41837 4.66664 6.26532C4.41997 6.11227 4.22771 5.89474 4.11418 5.64022C4.00065 5.38571 3.97094 5.10565 4.02882 4.83546C4.0867 4.56527 4.22956 4.31708 4.43934 4.12228C4.64912 3.92749 4.91639 3.79483 5.20736 3.74109C5.49834 3.68734 5.79994 3.71493 6.07403 3.82035C6.34811 3.92577 6.58238 4.1043 6.7472 4.33336C6.91203 4.56241 7 4.83171 7 5.10719C7 5.47661 6.84196 5.83089 6.56066 6.0921C6.27936 6.35332 5.89782 6.50006 5.5 6.50006ZM5.5 0C4.04182 0.00153607 2.64383 0.540107 1.61274 1.49756C0.581648 2.45501 0.00165421 3.75315 0 5.10719C0 6.92953 0.906875 8.86098 2.625 10.6932C3.39701 11.5211 4.26591 12.2666 5.21562 12.916C5.2997 12.9707 5.39985 13 5.5025 13C5.60515 13 5.70531 12.9707 5.78938 12.916C6.73734 12.2664 7.60455 11.5209 8.375 10.6932C10.0906 8.86098 11 6.92953 11 5.10719C10.9983 3.75315 10.4184 2.45501 9.38726 1.49756C8.35617 0.540107 6.95818 0.00153607 5.5 0ZM5.5 11.9555C4.46688 11.201 1 8.42977 1 5.10719C1 3.99896 1.47411 2.93611 2.31802 2.15247C3.16193 1.36883 4.30653 0.928581 5.5 0.928581C6.69347 0.928581 7.83807 1.36883 8.68198 2.15247C9.52589 2.93611 10 3.99896 10 5.10719C10 8.42861 6.53312 11.201 5.5 11.9555Z" fill="#38393C"/>
</g>
</svg>
