<svg width="80" height="19" viewBox="0 0 80 19" fill="none" xmlns="http://www.w3.org/2000/svg">
<path d="M6.4209 5.39062V12.5H4.95605L2.09961 7.73438V12.5H0.634766V5.39062H2.09961L4.96094 10.1611V5.39062H6.4209ZM8.97949 5V12.5H7.57324V5H8.97949ZM8.7793 9.67285H8.39355C8.39681 9.30501 8.44564 8.96647 8.54004 8.65723C8.63444 8.34473 8.76953 8.07454 8.94531 7.84668C9.12109 7.61556 9.33105 7.43652 9.5752 7.30957C9.82259 7.18262 10.096 7.11914 10.3955 7.11914C10.6559 7.11914 10.8919 7.15658 11.1035 7.23145C11.3184 7.30306 11.5023 7.42025 11.6553 7.58301C11.8115 7.74251 11.932 7.95247 12.0166 8.21289C12.1012 8.47331 12.1436 8.78906 12.1436 9.16016V12.5H10.7275V9.15039C10.7275 8.91602 10.6934 8.7321 10.625 8.59863C10.5599 8.46191 10.4639 8.36589 10.3369 8.31055C10.2132 8.25195 10.0602 8.22266 9.87793 8.22266C9.67611 8.22266 9.50358 8.26009 9.36035 8.33496C9.22038 8.40983 9.10807 8.514 9.02344 8.64746C8.9388 8.77767 8.87695 8.93066 8.83789 9.10645C8.79883 9.28223 8.7793 9.47103 8.7793 9.67285ZM16.0645 11.3086V8.95508C16.0645 8.78581 16.0368 8.64095 15.9814 8.52051C15.9261 8.39681 15.8398 8.30078 15.7227 8.23242C15.6087 8.16406 15.4606 8.12988 15.2783 8.12988C15.1221 8.12988 14.987 8.15755 14.873 8.21289C14.7591 8.26497 14.6712 8.34147 14.6094 8.44238C14.5475 8.54004 14.5166 8.6556 14.5166 8.78906H13.1104C13.1104 8.56445 13.1624 8.35124 13.2666 8.14941C13.3708 7.94759 13.5221 7.77018 13.7207 7.61719C13.9193 7.46094 14.1553 7.33887 14.4287 7.25098C14.7054 7.16309 15.0146 7.11914 15.3564 7.11914C15.7666 7.11914 16.1312 7.1875 16.4502 7.32422C16.7692 7.46094 17.0199 7.66602 17.2021 7.93945C17.3877 8.21289 17.4805 8.55469 17.4805 8.96484V11.2256C17.4805 11.5153 17.4984 11.7529 17.5342 11.9385C17.57 12.1208 17.6221 12.2803 17.6904 12.417V12.5H16.2695C16.2012 12.3568 16.1491 12.1777 16.1133 11.9629C16.0807 11.7448 16.0645 11.5267 16.0645 11.3086ZM16.25 9.28223L16.2598 10.0781H15.4736C15.2881 10.0781 15.127 10.0993 14.9902 10.1416C14.8535 10.1839 14.7412 10.2441 14.6533 10.3223C14.5654 10.3971 14.5003 10.485 14.458 10.5859C14.4189 10.6868 14.3994 10.7975 14.3994 10.918C14.3994 11.0384 14.4271 11.1475 14.4824 11.2451C14.5378 11.3395 14.6175 11.4144 14.7217 11.4697C14.8258 11.5218 14.9479 11.5479 15.0879 11.5479C15.2995 11.5479 15.4834 11.5055 15.6396 11.4209C15.7959 11.3363 15.9163 11.2321 16.001 11.1084C16.0889 10.9847 16.1344 10.8675 16.1377 10.7568L16.5088 11.3525C16.4567 11.486 16.3851 11.6243 16.2939 11.7676C16.2061 11.9108 16.0938 12.0459 15.957 12.1729C15.8203 12.2965 15.6559 12.3991 15.4639 12.4805C15.2718 12.5586 15.0439 12.5977 14.7803 12.5977C14.445 12.5977 14.1406 12.5309 13.8672 12.3975C13.597 12.2607 13.3822 12.0736 13.2227 11.8359C13.0664 11.5951 12.9883 11.3216 12.9883 11.0156C12.9883 10.7389 13.0404 10.4932 13.1445 10.2783C13.2487 10.0635 13.4017 9.88281 13.6035 9.73633C13.8086 9.58659 14.0641 9.47428 14.3701 9.39941C14.6761 9.32129 15.0309 9.28223 15.4346 9.28223H16.25ZM15.083 5L16.0449 6.50391H14.8926L13.5547 5H15.083ZM24.1748 11.3477V5H25.5908V12.5H24.3164L24.1748 11.3477ZM20.835 9.92188V9.81934C20.835 9.41569 20.8805 9.04948 20.9717 8.7207C21.0628 8.38867 21.1963 8.10384 21.3721 7.86621C21.5479 7.62858 21.7643 7.44466 22.0215 7.31445C22.2786 7.18424 22.5716 7.11914 22.9004 7.11914C23.2096 7.11914 23.4798 7.18424 23.7109 7.31445C23.9453 7.44466 24.1439 7.63021 24.3066 7.87109C24.4727 8.10872 24.6061 8.3903 24.707 8.71582C24.8079 9.03809 24.8812 9.39128 24.9268 9.77539V10C24.8812 10.3678 24.8079 10.7096 24.707 11.0254C24.6061 11.3411 24.4727 11.6178 24.3066 11.8555C24.1439 12.0898 23.9453 12.2721 23.7109 12.4023C23.4766 12.5326 23.2031 12.5977 22.8906 12.5977C22.5618 12.5977 22.2689 12.5309 22.0117 12.3975C21.7578 12.264 21.543 12.0768 21.3672 11.8359C21.1947 11.5951 21.0628 11.3118 20.9717 10.9863C20.8805 10.6608 20.835 10.306 20.835 9.92188ZM22.2412 9.81934V9.92188C22.2412 10.14 22.2575 10.3434 22.29 10.5322C22.3258 10.721 22.3828 10.8887 22.4609 11.0352C22.5423 11.1784 22.6465 11.2907 22.7734 11.3721C22.9036 11.4502 23.0615 11.4893 23.2471 11.4893C23.488 11.4893 23.6865 11.4355 23.8428 11.3281C23.999 11.2174 24.1178 11.0661 24.1992 10.874C24.2839 10.682 24.3327 10.4606 24.3457 10.21V9.57031C24.3359 9.36523 24.3066 9.18132 24.2578 9.01855C24.2122 8.85254 24.1439 8.71094 24.0527 8.59375C23.9648 8.47656 23.8542 8.38542 23.7207 8.32031C23.5905 8.25521 23.4359 8.22266 23.2568 8.22266C23.0745 8.22266 22.9183 8.26497 22.7881 8.34961C22.6579 8.43099 22.5521 8.54329 22.4707 8.68652C22.3926 8.82975 22.334 8.99902 22.2949 9.19434C22.2591 9.38639 22.2412 9.59473 22.2412 9.81934ZM26.3477 5.66895V6.53809H22.9297V5.66895H26.3477ZM29.7852 12.5977C29.375 12.5977 29.0072 12.5326 28.6816 12.4023C28.3561 12.2689 28.0794 12.085 27.8516 11.8506C27.627 11.6162 27.4544 11.3444 27.334 11.0352C27.2135 10.7227 27.1533 10.3906 27.1533 10.0391V9.84375C27.1533 9.44336 27.2103 9.07715 27.3242 8.74512C27.4382 8.41309 27.6009 8.125 27.8125 7.88086C28.0273 7.63672 28.2878 7.44954 28.5938 7.31934C28.8997 7.18587 29.2448 7.11914 29.6289 7.11914C30.0033 7.11914 30.3353 7.18099 30.625 7.30469C30.9147 7.42839 31.1572 7.60417 31.3525 7.83203C31.5511 8.0599 31.7008 8.33333 31.8018 8.65234C31.9027 8.9681 31.9531 9.31966 31.9531 9.70703V10.293H27.7539V9.35547H30.5713V9.24805C30.5713 9.05273 30.5355 8.87858 30.4639 8.72559C30.3955 8.56934 30.2913 8.44564 30.1514 8.35449C30.0114 8.26335 29.8324 8.21777 29.6143 8.21777C29.4287 8.21777 29.2692 8.25846 29.1357 8.33984C29.0023 8.42122 28.8932 8.53516 28.8086 8.68164C28.7272 8.82812 28.6654 9.00065 28.623 9.19922C28.584 9.39453 28.5645 9.60938 28.5645 9.84375V10.0391C28.5645 10.2507 28.5938 10.446 28.6523 10.625C28.7142 10.804 28.8005 10.9587 28.9111 11.0889C29.0251 11.2191 29.1618 11.32 29.3213 11.3916C29.484 11.4632 29.668 11.499 29.873 11.499C30.127 11.499 30.363 11.4502 30.5811 11.3525C30.8024 11.2516 30.9928 11.1003 31.1523 10.8984L31.8359 11.6406C31.7253 11.8001 31.5739 11.9531 31.3818 12.0996C31.193 12.2461 30.9652 12.3665 30.6982 12.4609C30.4313 12.5521 30.127 12.5977 29.7852 12.5977ZM28.7939 13.6475C28.7939 13.4587 28.8656 13.3008 29.0088 13.1738C29.152 13.0501 29.3441 12.9883 29.585 12.9883C29.8226 12.9883 30.013 13.0501 30.1562 13.1738C30.3027 13.3008 30.376 13.4587 30.376 13.6475C30.376 13.833 30.3027 13.9893 30.1562 14.1162C30.013 14.2432 29.8226 14.3066 29.585 14.3066C29.3441 14.3066 29.152 14.2432 29.0088 14.1162C28.8656 13.9893 28.7939 13.833 28.7939 13.6475ZM34.1602 8.23242V14.5312H32.7539V7.2168H34.0576L34.1602 8.23242ZM37.5049 9.7998V9.90234C37.5049 10.2865 37.4593 10.6429 37.3682 10.9717C37.2803 11.3005 37.1501 11.5869 36.9775 11.8311C36.805 12.0719 36.5902 12.2607 36.333 12.3975C36.0791 12.5309 35.7861 12.5977 35.4541 12.5977C35.1318 12.5977 34.8519 12.5326 34.6143 12.4023C34.3766 12.2721 34.1764 12.0898 34.0137 11.8555C33.8542 11.6178 33.7256 11.3428 33.6279 11.0303C33.5303 10.7178 33.4554 10.3825 33.4033 10.0244V9.75586C33.4554 9.37174 33.5303 9.02018 33.6279 8.70117C33.7256 8.37891 33.8542 8.10059 34.0137 7.86621C34.1764 7.62858 34.375 7.44466 34.6094 7.31445C34.847 7.18424 35.1253 7.11914 35.4443 7.11914C35.7796 7.11914 36.0742 7.18262 36.3281 7.30957C36.5853 7.43652 36.8001 7.61882 36.9727 7.85645C37.1484 8.09408 37.2803 8.37728 37.3682 8.70605C37.4593 9.03483 37.5049 9.39941 37.5049 9.7998ZM36.0938 9.90234V9.7998C36.0938 9.5752 36.0742 9.36849 36.0352 9.17969C35.9993 8.98763 35.9408 8.81999 35.8594 8.67676C35.7812 8.53353 35.6771 8.42285 35.5469 8.34473C35.4199 8.26335 35.2653 8.22266 35.083 8.22266C34.891 8.22266 34.7266 8.25358 34.5898 8.31543C34.4564 8.37728 34.3473 8.4668 34.2627 8.58398C34.1781 8.70117 34.1146 8.84115 34.0723 9.00391C34.0299 9.16667 34.0039 9.35059 33.9941 9.55566V10.2344C34.0104 10.4753 34.056 10.6917 34.1309 10.8838C34.2057 11.0726 34.3213 11.2223 34.4775 11.333C34.6338 11.4437 34.8389 11.499 35.0928 11.499C35.2783 11.499 35.4346 11.4583 35.5615 11.377C35.6885 11.2923 35.791 11.1768 35.8691 11.0303C35.9505 10.8838 36.0075 10.7145 36.04 10.5225C36.0758 10.3304 36.0938 10.1237 36.0938 9.90234Z" fill="#003E9C"/>
<path d="M46.9492 13.3906L50.2793 16.5449L48.3359 18.0391L45.0742 14.8848L46.9492 13.3906ZM51.8223 8.00977L51.7246 8.69336C51.6009 9.60482 51.36 10.4837 51.002 11.3301C50.6439 12.1764 50.1719 12.9316 49.5859 13.5957C49.0065 14.2533 48.3164 14.7741 47.5156 15.1582C46.7214 15.5358 45.8229 15.7148 44.8203 15.6953C43.8568 15.6758 43.0397 15.4674 42.3691 15.0703C41.7051 14.6667 41.1777 14.1328 40.7871 13.4688C40.3965 12.8047 40.1361 12.0658 40.0059 11.252C39.8757 10.4316 39.8626 9.5918 39.9668 8.73242L40.0547 8.05859C40.1849 7.14714 40.429 6.27148 40.7871 5.43164C41.1517 4.5918 41.6237 3.8431 42.2031 3.18555C42.7891 2.52148 43.4792 2.00065 44.2734 1.62305C45.0742 1.24544 45.9727 1.06641 46.9688 1.08594C47.9323 1.09896 48.7461 1.30729 49.4102 1.71094C50.0742 2.10807 50.6016 2.63867 50.9922 3.30273C51.3828 3.96029 51.6432 4.69922 51.7734 5.51953C51.9102 6.33333 51.9264 7.16341 51.8223 8.00977ZM48.834 8.73242L48.9316 8.0293C48.9837 7.58659 49.0098 7.10807 49.0098 6.59375C49.0163 6.07292 48.9577 5.57487 48.834 5.09961C48.7103 4.61784 48.4889 4.22396 48.1699 3.91797C47.8509 3.60547 47.3984 3.4362 46.8125 3.41016C46.1745 3.39062 45.6276 3.51758 45.1719 3.79102C44.7227 4.06445 44.3451 4.43555 44.0391 4.9043C43.7396 5.36654 43.502 5.87435 43.3262 6.42773C43.1504 6.97461 43.0267 7.51172 42.9551 8.03906L42.8574 8.74219C42.8053 9.17839 42.776 9.66016 42.7695 10.1875C42.7695 10.7083 42.8314 11.2096 42.9551 11.6914C43.0788 12.1667 43.3001 12.5605 43.6191 12.873C43.9382 13.1855 44.3939 13.3548 44.9863 13.3809C45.6178 13.4004 46.1582 13.2702 46.6074 12.9902C47.0632 12.7103 47.444 12.3392 47.75 11.877C48.056 11.4082 48.2936 10.9004 48.4629 10.3535C48.6387 9.80013 48.7624 9.25977 48.834 8.73242ZM58.9414 12.8242L60.3086 4.93359H63.0625L61.2266 15.5H58.6484L58.9414 12.8242ZM59.5664 10.793L60.3574 10.7734C60.2858 11.3919 60.1491 11.9974 59.9473 12.5898C59.7454 13.1823 59.4688 13.7161 59.1172 14.1914C58.7656 14.6667 58.3294 15.041 57.8086 15.3145C57.2878 15.5879 56.6725 15.7181 55.9629 15.7051C55.3835 15.6921 54.8952 15.5814 54.498 15.373C54.1009 15.1582 53.7852 14.8717 53.5508 14.5137C53.3164 14.1491 53.1569 13.7324 53.0723 13.2637C52.9941 12.7949 52.9811 12.2936 53.0332 11.7598L54.1758 4.93359H56.9199L55.7676 11.7988C55.748 12.0202 55.748 12.2318 55.7676 12.4336C55.7871 12.6289 55.8392 12.8047 55.9238 12.9609C56.0085 13.1172 56.1289 13.2441 56.2852 13.3418C56.4414 13.4329 56.6497 13.4818 56.9102 13.4883C57.4635 13.5078 57.9225 13.3971 58.2871 13.1562C58.6517 12.9089 58.9349 12.5768 59.1367 12.1602C59.3451 11.7435 59.4883 11.2878 59.5664 10.793ZM69.2734 13.1172L70.0156 8.38086C70.0482 8.0944 70.0352 7.82747 69.9766 7.58008C69.918 7.33268 69.7975 7.13737 69.6152 6.99414C69.4395 6.8444 69.1888 6.76302 68.8633 6.75C68.5703 6.74349 68.3066 6.79557 68.0723 6.90625C67.8444 7.01042 67.6556 7.16341 67.5059 7.36523C67.3561 7.56055 67.252 7.79492 67.1934 8.06836L64.4395 8.08789C64.472 7.50195 64.6348 6.9974 64.9277 6.57422C65.2272 6.14453 65.6048 5.79297 66.0605 5.51953C66.5163 5.24609 67.0111 5.04427 67.5449 4.91406C68.0853 4.78385 68.6126 4.72526 69.127 4.73828C69.8626 4.7513 70.5169 4.9043 71.0898 5.19727C71.6693 5.49023 72.112 5.91016 72.418 6.45703C72.7305 6.9974 72.8477 7.65495 72.7695 8.42969L72.0371 12.9609C71.9785 13.3385 71.9329 13.7357 71.9004 14.1523C71.8678 14.5625 71.9264 14.9531 72.0762 15.3242L72.0566 15.5L69.3613 15.5098C69.2376 15.1257 69.1758 14.7318 69.1758 14.3281C69.1823 13.918 69.2148 13.5143 69.2734 13.1172ZM70.3281 9.06445L70.0645 10.6562L68.668 10.6465C68.388 10.653 68.1081 10.6921 67.8281 10.7637C67.5547 10.8288 67.3008 10.9329 67.0664 11.0762C66.832 11.2129 66.6367 11.3919 66.4805 11.6133C66.3307 11.8346 66.2363 12.1048 66.1973 12.4238C66.1647 12.6517 66.1875 12.8568 66.2656 13.0391C66.3438 13.2148 66.4642 13.3548 66.627 13.459C66.7962 13.5632 66.998 13.6185 67.2324 13.625C67.5645 13.6315 67.89 13.5697 68.209 13.4395C68.528 13.3027 68.8047 13.1107 69.0391 12.8633C69.2734 12.6159 69.4362 12.3294 69.5273 12.0039L70.1133 13.2246C69.957 13.5892 69.7585 13.9245 69.5176 14.2305C69.2832 14.5365 69.013 14.8034 68.707 15.0312C68.401 15.2526 68.0658 15.4219 67.7012 15.5391C67.3366 15.6628 66.946 15.7214 66.5293 15.7148C65.9499 15.7018 65.416 15.5651 64.9277 15.3047C64.446 15.0378 64.0618 14.6764 63.7754 14.2207C63.4954 13.7585 63.3685 13.2214 63.3945 12.6094C63.4206 11.9193 63.5931 11.3464 63.9121 10.8906C64.2311 10.4284 64.6413 10.0638 65.1426 9.79688C65.6504 9.52995 66.2005 9.34115 66.793 9.23047C67.3919 9.11328 67.9844 9.05469 68.5703 9.05469L70.3281 9.06445ZM68.1602 3.50781L70.4941 0.5H73.6484L70.5723 3.50781H68.1602ZM79.2539 1.28125L77.2227 11.1543H74.9375L76.334 1.28125H79.2539ZM74.0195 14.2598C74.0065 13.8171 74.1497 13.4557 74.4492 13.1758C74.7552 12.8893 75.123 12.7461 75.5527 12.7461C75.9694 12.7396 76.3275 12.8698 76.627 13.1367C76.9264 13.3971 77.0794 13.7389 77.0859 14.1621C77.0924 14.5983 76.9427 14.9596 76.6367 15.2461C76.3372 15.526 75.9727 15.666 75.543 15.666C75.1328 15.6725 74.778 15.5456 74.4785 15.2852C74.179 15.0247 74.026 14.6829 74.0195 14.2598Z" fill="#003E9C"/>
</svg>
