<svg width="23" height="23" viewBox="0 0 23 23" fill="none" xmlns="http://www.w3.org/2000/svg">
<path d="M19.4063 8.62506C19.407 7.29268 19.0711 5.9817 18.4296 4.81391C17.7882 3.64611 16.862 2.65936 15.7371 1.94533C14.6122 1.23129 13.3251 0.813111 11.9953 0.729642C10.6655 0.646174 9.33624 0.900119 8.13089 1.46789C6.92554 2.03566 5.88322 2.89884 5.10075 3.97726C4.31829 5.05568 3.82105 6.31435 3.65522 7.63637C3.4894 8.9584 3.66037 10.3009 4.15225 11.5391C4.64413 12.7774 5.44097 13.8713 6.46875 14.7192V21.5626C6.46866 21.6851 6.49993 21.8057 6.55957 21.9128C6.61921 22.0199 6.70525 22.1099 6.80951 22.1744C6.91377 22.2389 7.03278 22.2756 7.15524 22.2811C7.27769 22.2866 7.39952 22.2607 7.50914 22.2058L11.5 20.2149L15.4918 22.2103C15.5918 22.2582 15.7016 22.2825 15.8125 22.2813C16.0031 22.2813 16.1859 22.2056 16.3207 22.0708C16.4555 21.936 16.5313 21.7532 16.5313 21.5626V14.7192C17.4305 13.9785 18.1547 13.048 18.6518 11.9943C19.1488 10.9407 19.4065 9.79007 19.4063 8.62506ZM5.03125 8.62506C5.03125 7.34566 5.41064 6.09499 6.12143 5.03121C6.83223 3.96743 7.84251 3.13831 9.02452 2.64871C10.2065 2.15911 11.5072 2.031 12.762 2.2806C14.0168 2.5302 15.1694 3.14629 16.0741 4.05096C16.9788 4.95563 17.5949 6.10825 17.8445 7.36307C18.0941 8.61788 17.966 9.91853 17.4763 11.1005C16.9867 12.2825 16.1576 13.2928 15.0938 14.0036C14.0301 14.7144 12.7794 15.0938 11.5 15.0938C9.78497 15.0919 8.14072 14.4098 6.92801 13.1971C5.71529 11.9843 5.03315 10.3401 5.03125 8.62506ZM15.0938 20.4L11.8207 18.7639C11.7209 18.714 11.6108 18.6879 11.4991 18.6879C11.3874 18.6879 11.2773 18.714 11.1775 18.7639L7.90625 20.4V15.6661C9.01884 16.2348 10.2505 16.5313 11.5 16.5313C12.7495 16.5313 13.9812 16.2348 15.0938 15.6661V20.4ZM11.5 13.6563C12.4951 13.6563 13.4678 13.3612 14.2952 12.8084C15.1226 12.2555 15.7675 11.4698 16.1483 10.5504C16.5291 9.63109 16.6287 8.61947 16.4346 7.64351C16.2404 6.66754 15.7613 5.77106 15.0576 5.06743C14.354 4.36379 13.4575 3.88461 12.4816 3.69048C11.5056 3.49635 10.494 3.59598 9.57463 3.97679C8.65528 4.35759 7.86951 5.00246 7.31667 5.82984C6.76383 6.65723 6.46875 7.62997 6.46875 8.62506C6.47018 9.95899 7.00071 11.2379 7.94395 12.1811C8.88718 13.1243 10.1661 13.6549 11.5 13.6563ZM11.5 5.03131C12.2108 5.03131 12.9056 5.24208 13.4966 5.63696C14.0876 6.03185 14.5482 6.59312 14.8202 7.24979C15.0922 7.90646 15.1634 8.62904 15.0247 9.32616C14.886 10.0233 14.5438 10.6636 14.0412 11.1662C13.5386 11.6688 12.8982 12.0111 12.2011 12.1498C11.504 12.2884 10.7814 12.2173 10.1247 11.9452C9.46806 11.6732 8.90679 11.2126 8.51191 10.6216C8.11702 10.0306 7.90625 9.33583 7.90625 8.62506C7.90625 7.67193 8.28488 6.75785 8.95884 6.08389C9.6328 5.40993 10.5469 5.03131 11.5 5.03131Z" fill="#A9ACAF"/>
</svg>
