<svg width="19" height="19" viewBox="0 0 19 19" fill="none" xmlns="http://www.w3.org/2000/svg">
<path d="M11.5253 1.30594C11.5508 1.21076 11.5947 1.12152 11.6547 1.04334C11.7147 0.96515 11.7894 0.899545 11.8748 0.850267C11.9601 0.80099 12.0543 0.769007 12.152 0.756147C12.2496 0.743286 12.3489 0.749799 12.4441 0.775314C13.8344 1.13808 15.103 1.86492 16.119 2.88097C17.1351 3.89703 17.8619 5.16557 18.2247 6.55594C18.2502 6.65111 18.2567 6.75037 18.2439 6.84805C18.231 6.94574 18.199 7.03993 18.1497 7.12526C18.1005 7.21058 18.0349 7.28535 17.9567 7.34531C17.8785 7.40527 17.7893 7.44923 17.6941 7.47469C17.6307 7.49133 17.5655 7.49984 17.5 7.5C17.3347 7.5 17.1741 7.4454 17.043 7.3447C16.912 7.24399 16.8179 7.10283 16.7753 6.94313C16.4795 5.80811 15.8863 4.77254 15.0569 3.94315C14.2275 3.11375 13.1919 2.52055 12.0569 2.22469C11.9616 2.19933 11.8723 2.15544 11.794 2.09553C11.7157 2.03561 11.65 1.96085 11.6006 1.87552C11.5513 1.79019 11.5192 1.69596 11.5063 1.59823C11.4933 1.50049 11.4998 1.40117 11.5253 1.30594ZM11.3069 5.22469C12.5997 5.56969 13.4303 6.40031 13.7753 7.69313C13.8179 7.85283 13.912 7.99399 14.043 8.0947C14.1741 8.1954 14.3347 8.25 14.5 8.25C14.5655 8.24984 14.6307 8.24133 14.6941 8.22469C14.7893 8.19923 14.8785 8.15527 14.9567 8.09531C15.0349 8.03535 15.1005 7.96058 15.1497 7.87526C15.199 7.78993 15.231 7.69574 15.2439 7.59805C15.2567 7.50037 15.2502 7.40111 15.2247 7.30594C14.7447 5.50969 13.4903 4.25531 11.6941 3.77531C11.5019 3.72397 11.2971 3.75108 11.1249 3.85068C10.9527 3.95028 10.8271 4.11421 10.7758 4.30641C10.7244 4.49861 10.7516 4.70333 10.8512 4.87554C10.9508 5.04775 11.1147 5.17334 11.3069 5.22469ZM18.9888 14.1638C18.8216 15.4341 18.1977 16.6001 17.2337 17.4441C16.2696 18.2881 15.0313 18.7523 13.75 18.75C6.30626 18.75 0.250008 12.6938 0.250008 5.25C0.247712 3.96871 0.711903 2.7304 1.55588 1.76634C2.39986 0.802284 3.56592 0.178414 4.83626 0.011251C5.1575 -0.0279731 5.4828 0.0377467 5.76362 0.1986C6.04444 0.359453 6.2657 0.606812 6.39438 0.903751L8.37438 5.32406V5.33531C8.4729 5.56261 8.51359 5.81078 8.49281 6.05764C8.47204 6.30449 8.39044 6.54236 8.25532 6.75C8.23845 6.77531 8.22063 6.79875 8.20188 6.82219L6.25001 9.13594C6.9522 10.5628 8.4447 12.0422 9.89032 12.7463L12.1722 10.8047C12.1946 10.7859 12.2181 10.7683 12.2425 10.7522C12.45 10.6138 12.6887 10.5294 12.937 10.5064C13.1853 10.4835 13.4354 10.5229 13.6647 10.6209L13.6769 10.6266L18.0934 12.6056C18.3909 12.7338 18.6389 12.9549 18.8003 13.2358C18.9616 13.5166 19.0278 13.8422 18.9888 14.1638ZM17.5 13.9763C17.5 13.9763 17.4934 13.9763 17.4897 13.9763L13.0834 12.0028L10.8006 13.9444C10.7785 13.9631 10.7553 13.9807 10.7313 13.9969C10.5154 14.1409 10.2659 14.2264 10.0071 14.2452C9.74828 14.2639 9.48904 14.2152 9.2547 14.1038C7.49876 13.2553 5.74845 11.5181 4.89907 9.78094C4.7866 9.5483 4.73613 9.29056 4.75255 9.03268C4.76898 8.77481 4.85174 8.52555 4.99282 8.30906C5.00872 8.28364 5.02659 8.25951 5.04626 8.23688L7.00001 5.92031L5.03126 1.51406C5.03089 1.51032 5.03089 1.50655 5.03126 1.50281C4.12212 1.62141 3.28739 2.06734 2.68339 2.75711C2.0794 3.44688 1.74755 4.33317 1.75001 5.25C1.75348 8.43153 3.01888 11.4818 5.26856 13.7314C7.51825 15.9811 10.5685 17.2465 13.75 17.25C14.6663 17.2531 15.5523 16.9225 16.2425 16.3198C16.9327 15.7171 17.3797 14.8837 17.5 13.9753V13.9763Z" fill="white"/>
</svg>
