<svg width="21" height="21" viewBox="0 0 21 21" fill="none" xmlns="http://www.w3.org/2000/svg">
<path d="M18.8034 2.69656C17.6121 1.5036 16.0536 0.746818 14.3794 0.548332C12.7052 0.349847 11.013 0.721237 9.57576 1.60257C8.13854 2.48391 7.04018 3.82378 6.45793 5.40597C5.87568 6.98817 5.84349 8.72039 6.36657 10.3231L1.1897 15.5C1.0498 15.6388 0.938889 15.804 0.863407 15.986C0.787925 16.168 0.749378 16.3633 0.750008 16.5603V19.25C0.750008 19.6478 0.908043 20.0294 1.18935 20.3107C1.47065 20.592 1.85218 20.75 2.25001 20.75H5.25001C5.44892 20.75 5.63969 20.671 5.78034 20.5303C5.92099 20.3897 6.00001 20.1989 6.00001 20V18.5H7.50001C7.69892 18.5 7.88969 18.421 8.03034 18.2803C8.17099 18.1397 8.25001 17.9489 8.25001 17.75V16.25H9.75001C9.84853 16.2501 9.9461 16.2307 10.0371 16.1931C10.1282 16.1555 10.2109 16.1003 10.2806 16.0306L11.1769 15.1334C11.9271 15.3774 12.7111 15.5012 13.5 15.5H13.5094C14.992 15.4982 16.4408 15.057 17.6728 14.2322C18.9048 13.4074 19.8646 12.2359 20.4312 10.8658C20.9977 9.49574 21.1454 7.98847 20.8557 6.53445C20.566 5.08043 19.8518 3.74489 18.8034 2.69656ZM19.5 8.19687C19.3978 11.3928 16.7109 13.9963 13.5103 14H13.5C12.7408 14.0013 11.9883 13.8578 11.2828 13.5772C11.1448 13.5173 10.992 13.5003 10.8442 13.5284C10.6964 13.5565 10.5605 13.6283 10.4541 13.7347L9.4397 14.75H7.50001C7.3011 14.75 7.11033 14.829 6.96968 14.9697C6.82903 15.1103 6.75001 15.3011 6.75001 15.5V17H5.25001C5.0511 17 4.86033 17.079 4.71968 17.2197C4.57903 17.3603 4.50001 17.5511 4.50001 17.75V19.25H2.25001V16.5603L7.76532 11.0459C7.87166 10.9395 7.94355 10.8036 7.97163 10.6558C7.99972 10.508 7.98271 10.3552 7.92282 10.2172C7.64133 9.50936 7.49782 8.75424 7.50001 7.9925C7.50001 4.79187 10.1072 2.105 13.3031 2.00281C14.1241 1.97542 14.9419 2.11687 15.7059 2.41842C16.47 2.71997 17.164 3.17518 17.7449 3.75587C18.3259 4.33656 18.7814 5.03034 19.0833 5.79425C19.3852 6.55816 19.527 7.37592 19.5 8.19687ZM16.5 6.125C16.5 6.3475 16.434 6.56501 16.3104 6.75002C16.1868 6.93502 16.0111 7.07922 15.8055 7.16436C15.6 7.24951 15.3738 7.27179 15.1555 7.22838C14.9373 7.18497 14.7368 7.07783 14.5795 6.92049C14.4222 6.76316 14.315 6.56271 14.2716 6.34448C14.2282 6.12625 14.2505 5.90005 14.3356 5.69448C14.4208 5.48891 14.565 5.31321 14.75 5.1896C14.935 5.06598 15.1525 5 15.375 5C15.6734 5 15.9595 5.11853 16.1705 5.3295C16.3815 5.54048 16.5 5.82663 16.5 6.125Z" fill="black"/>
</svg>
