<svg width="18" height="18" viewBox="0 0 18 18" fill="none" xmlns="http://www.w3.org/2000/svg">
<path d="M18 1.5V6C18 6.19891 17.921 6.38968 17.7803 6.53033C17.6397 6.67098 17.4489 6.75 17.25 6.75H12.75C12.5511 6.75 12.3603 6.67098 12.2197 6.53033C12.079 6.38968 12 6.19891 12 6C12 5.80109 12.079 5.61032 12.2197 5.46967C12.3603 5.32902 12.5511 5.25 12.75 5.25H15.4397L14.0681 3.87844C12.6742 2.47819 10.7817 1.68821 8.80594 1.68188H8.76375C6.80454 1.67728 4.92227 2.44413 3.52406 3.81656C3.38083 3.95027 3.19096 4.02262 2.99507 4.01812C2.79918 4.01363 2.61283 3.93265 2.47588 3.79252C2.33893 3.65238 2.26226 3.46422 2.26227 3.26828C2.26228 3.07234 2.33897 2.88418 2.47594 2.74406C4.1705 1.08787 6.44983 0.166762 8.81928 0.180628C11.1887 0.194493 13.4571 1.14222 15.1322 2.81813L16.5 4.18969V1.5C16.5 1.30109 16.579 1.11032 16.7197 0.96967C16.8603 0.829018 17.0511 0.75 17.25 0.75C17.4489 0.75 17.6397 0.829018 17.7803 0.96967C17.921 1.11032 18 1.30109 18 1.5ZM14.4759 14.1834C13.0639 15.5627 11.1651 16.3297 9.1912 16.3182C7.21734 16.3066 5.32762 15.5173 3.93188 14.1216L2.56031 12.75H5.25C5.44891 12.75 5.63968 12.671 5.78033 12.5303C5.92098 12.3897 6 12.1989 6 12C6 11.8011 5.92098 11.6103 5.78033 11.4697C5.63968 11.329 5.44891 11.25 5.25 11.25H0.75C0.551088 11.25 0.360322 11.329 0.21967 11.4697C0.0790178 11.6103 0 11.8011 0 12V16.5C0 16.6989 0.0790178 16.8897 0.21967 17.0303C0.360322 17.171 0.551088 17.25 0.75 17.25C0.948912 17.25 1.13968 17.171 1.28033 17.0303C1.42098 16.8897 1.5 16.6989 1.5 16.5V13.8103L2.87156 15.1819C4.54426 16.863 6.816 17.8112 9.1875 17.8181H9.23719C11.5885 17.8242 13.8476 16.9037 15.525 15.2559C15.662 15.1158 15.7387 14.9277 15.7387 14.7317C15.7387 14.5358 15.662 14.3476 15.5251 14.2075C15.3881 14.0673 15.2018 13.9864 15.0059 13.9819C14.81 13.9774 14.6201 14.0497 14.4769 14.1834H14.4759Z" fill="black"/>
</svg>
