<svg width="12" height="12" viewBox="0 0 12 12" fill="none" xmlns="http://www.w3.org/2000/svg">
<g id="search">
<path id="Vector" d="M10.7653 10.2347L8.41827 7.88811C9.09853 7.07141 9.43775 6.02389 9.36535 4.96345C9.29295 3.90302 8.81451 2.91132 8.02955 2.19466C7.2446 1.47799 6.21357 1.09154 5.15094 1.11569C4.08831 1.13984 3.0759 1.57274 2.32432 2.32432C1.57274 3.0759 1.13984 4.08831 1.11569 5.15094C1.09154 6.21357 1.47799 7.2446 2.19466 8.02955C2.91132 8.81451 3.90302 9.29295 4.96345 9.36535C6.02389 9.43775 7.07141 9.09853 7.88811 8.41827L10.2347 10.7653C10.2695 10.8001 10.3109 10.8278 10.3564 10.8466C10.4019 10.8655 10.4507 10.8752 10.5 10.8752C10.5493 10.8752 10.5981 10.8655 10.6436 10.8466C10.6891 10.8278 10.7305 10.8001 10.7653 10.7653C10.8001 10.7305 10.8278 10.6891 10.8466 10.6436C10.8655 10.5981 10.8752 10.5493 10.8752 10.5C10.8752 10.4507 10.8655 10.4019 10.8466 10.3564C10.8278 10.3109 10.8001 10.2695 10.7653 10.2347ZM1.87498 5.24999C1.87498 4.58247 2.07293 3.92995 2.44378 3.37494C2.81462 2.81992 3.34173 2.38734 3.95843 2.13189C4.57513 1.87645 5.25373 1.80961 5.90841 1.93983C6.5631 2.07006 7.16447 2.3915 7.63647 2.8635C8.10847 3.3355 8.42991 3.93687 8.56014 4.59156C8.69036 5.24624 8.62353 5.92484 8.36808 6.54154C8.11263 7.15824 7.68005 7.68535 7.12504 8.0562C6.57002 8.42705 5.9175 8.62499 5.24999 8.62499C4.35518 8.62399 3.49732 8.2681 2.8646 7.63538C2.23188 7.00265 1.87598 6.14479 1.87498 5.24999Z" fill="#FEFEFF"/>
</g>
</svg>
