<svg width="10" height="10" viewBox="0 0 10 10" fill="none" xmlns="http://www.w3.org/2000/svg">
<path d="M9.76531 9.23469L7.41828 6.88813C8.09855 6.07143 8.43776 5.0239 8.36536 3.96347C8.29296 2.90304 7.81452 1.91134 7.02957 1.19467C6.24461 0.47801 5.21358 0.0915567 4.15096 0.115707C3.08833 0.139857 2.07592 0.572751 1.32434 1.32434C0.572751 2.07592 0.139857 3.08833 0.115707 4.15096C0.0915567 5.21358 0.47801 6.24461 1.19467 7.02957C1.91134 7.81452 2.90304 8.29296 3.96347 8.36536C5.0239 8.43776 6.07143 8.09855 6.88813 7.41828L9.23469 9.76531C9.26953 9.80016 9.31089 9.82779 9.35641 9.84665C9.40194 9.8655 9.45073 9.87521 9.5 9.87521C9.54927 9.87521 9.59807 9.8655 9.64359 9.84665C9.68911 9.82779 9.73047 9.80016 9.76531 9.76531C9.80016 9.73047 9.82779 9.68911 9.84665 9.64359C9.8655 9.59807 9.87521 9.54927 9.87521 9.5C9.87521 9.45073 9.8655 9.40194 9.84665 9.35641C9.82779 9.31089 9.80016 9.26953 9.76531 9.23469ZM0.875 4.25C0.875 3.58249 1.07294 2.92997 1.44379 2.37495C1.81464 1.81993 2.34174 1.38735 2.95844 1.13191C3.57514 0.876461 4.25374 0.809625 4.90843 0.93985C5.56312 1.07008 6.16448 1.39151 6.63649 1.86351C7.10849 2.33552 7.42993 2.93688 7.56015 3.59157C7.69038 4.24626 7.62354 4.92486 7.36809 5.54156C7.11265 6.15826 6.68007 6.68536 6.12505 7.05621C5.57003 7.42706 4.91751 7.625 4.25 7.625C3.3552 7.62401 2.49733 7.26811 1.86461 6.63539C1.23189 6.00267 0.875993 5.1448 0.875 4.25Z" fill="black"/>
</svg>
