<svg width="23" height="18" viewBox="0 0 23 18" fill="none" xmlns="http://www.w3.org/2000/svg">
<path d="M16.75 5.39719V4.875C16.75 2.52375 13.2034 0.75 8.5 0.75C3.79656 0.75 0.25 2.52375 0.25 4.875V8.625C0.25 10.5834 2.71094 12.1397 6.25 12.6056V13.125C6.25 15.4762 9.79656 17.25 14.5 17.25C19.2034 17.25 22.75 15.4762 22.75 13.125V9.375C22.75 7.43437 20.3669 5.87625 16.75 5.39719ZM21.25 9.375C21.25 10.6144 18.3634 12 14.5 12C14.1503 12 13.8034 11.9878 13.4613 11.9653C15.4834 11.2284 16.75 10.0312 16.75 8.625V6.91313C19.5503 7.33031 21.25 8.46281 21.25 9.375ZM6.25 11.0859V8.85563C6.99604 8.95283 7.74765 9.00106 8.5 9C9.25235 9.00106 10.004 8.95283 10.75 8.85563V11.0859C10.0051 11.196 9.25302 11.2508 8.5 11.25C7.74698 11.2508 6.99493 11.196 6.25 11.0859ZM15.25 7.30594V8.625C15.25 9.41156 14.0866 10.2562 12.25 10.7691V8.57812C13.4603 8.28469 14.485 7.84781 15.25 7.30594ZM8.5 2.25C12.3634 2.25 15.25 3.63563 15.25 4.875C15.25 6.11437 12.3634 7.5 8.5 7.5C4.63656 7.5 1.75 6.11437 1.75 4.875C1.75 3.63563 4.63656 2.25 8.5 2.25ZM1.75 8.625V7.30594C2.515 7.84781 3.53969 8.28469 4.75 8.57812V10.7691C2.91344 10.2562 1.75 9.41156 1.75 8.625ZM7.75 13.125V12.7341C7.99656 12.7434 8.24594 12.75 8.5 12.75C8.86375 12.75 9.21906 12.7378 9.56781 12.7172C9.95524 12.8559 10.3499 12.9736 10.75 13.0697V15.2691C8.91344 14.7562 7.75 13.9116 7.75 13.125ZM12.25 15.5859V13.35C12.9958 13.4503 13.7475 13.5004 14.5 13.5C15.2523 13.5011 16.004 13.4528 16.75 13.3556V15.5859C15.258 15.8047 13.742 15.8047 12.25 15.5859ZM18.25 15.2691V13.0781C19.4603 12.7847 20.485 12.3478 21.25 11.8059V13.125C21.25 13.9116 20.0866 14.7562 18.25 15.2691Z" fill="black"/>
</svg>
