<svg width="22" height="6" viewBox="0 0 22 6" fill="none" xmlns="http://www.w3.org/2000/svg">
<path d="M11 0C10.4067 0 9.82664 0.175947 9.33329 0.505591C8.83994 0.835236 8.45542 1.30377 8.22836 1.85195C8.0013 2.40013 7.94189 3.00333 8.05764 3.58527C8.1734 4.16721 8.45912 4.70176 8.87868 5.12132C9.29824 5.54088 9.83279 5.8266 10.4147 5.94236C10.9967 6.05811 11.5999 5.9987 12.148 5.77164C12.6962 5.54458 13.1648 5.16006 13.4944 4.66671C13.8241 4.17336 14 3.59334 14 3C14 2.20435 13.6839 1.44129 13.1213 0.87868C12.5587 0.31607 11.7956 0 11 0ZM11 4.5C10.7033 4.5 10.4133 4.41203 10.1666 4.2472C9.91997 4.08238 9.72771 3.84811 9.61418 3.57403C9.50065 3.29994 9.47094 2.99834 9.52882 2.70736C9.5867 2.41639 9.72956 2.14912 9.93934 1.93934C10.1491 1.72956 10.4164 1.5867 10.7074 1.52882C10.9983 1.47094 11.2999 1.50065 11.574 1.61418C11.8481 1.72771 12.0824 1.91997 12.2472 2.16664C12.412 2.41332 12.5 2.70333 12.5 3C12.5 3.39782 12.342 3.77936 12.0607 4.06066C11.7794 4.34196 11.3978 4.5 11 4.5ZM3.5 0C2.90666 0 2.32664 0.175947 1.83329 0.505591C1.33994 0.835236 0.955424 1.30377 0.728361 1.85195C0.501298 2.40013 0.441888 3.00333 0.557644 3.58527C0.673399 4.16721 0.959122 4.70176 1.37868 5.12132C1.79824 5.54088 2.33279 5.8266 2.91473 5.94236C3.49667 6.05811 4.09987 5.9987 4.64805 5.77164C5.19623 5.54458 5.66476 5.16006 5.99441 4.66671C6.32405 4.17336 6.5 3.59334 6.5 3C6.5 2.20435 6.18393 1.44129 5.62132 0.87868C5.05871 0.31607 4.29565 0 3.5 0ZM3.5 4.5C3.20333 4.5 2.91332 4.41203 2.66664 4.2472C2.41997 4.08238 2.22771 3.84811 2.11418 3.57403C2.00065 3.29994 1.97094 2.99834 2.02882 2.70736C2.0867 2.41639 2.22956 2.14912 2.43934 1.93934C2.64912 1.72956 2.91639 1.5867 3.20736 1.52882C3.49834 1.47094 3.79994 1.50065 4.07402 1.61418C4.34811 1.72771 4.58238 1.91997 4.7472 2.16664C4.91203 2.41332 5 2.70333 5 3C5 3.39782 4.84196 3.77936 4.56066 4.06066C4.27936 4.34196 3.89782 4.5 3.5 4.5ZM18.5 0C17.9067 0 17.3266 0.175947 16.8333 0.505591C16.3399 0.835236 15.9554 1.30377 15.7284 1.85195C15.5013 2.40013 15.4419 3.00333 15.5576 3.58527C15.6734 4.16721 15.9591 4.70176 16.3787 5.12132C16.7982 5.54088 17.3328 5.8266 17.9147 5.94236C18.4967 6.05811 19.0999 5.9987 19.648 5.77164C20.1962 5.54458 20.6648 5.16006 20.9944 4.66671C21.3241 4.17336 21.5 3.59334 21.5 3C21.5 2.20435 21.1839 1.44129 20.6213 0.87868C20.0587 0.31607 19.2956 0 18.5 0ZM18.5 4.5C18.2033 4.5 17.9133 4.41203 17.6666 4.2472C17.42 4.08238 17.2277 3.84811 17.1142 3.57403C17.0006 3.29994 16.9709 2.99834 17.0288 2.70736C17.0867 2.41639 17.2296 2.14912 17.4393 1.93934C17.6491 1.72956 17.9164 1.5867 18.2074 1.52882C18.4983 1.47094 18.7999 1.50065 19.074 1.61418C19.3481 1.72771 19.5824 1.91997 19.7472 2.16664C19.912 2.41332 20 2.70333 20 3C20 3.39782 19.842 3.77936 19.5607 4.06066C19.2794 4.34196 18.8978 4.5 18.5 4.5Z" fill="black"/>
</svg>
