<svg width="20" height="20" viewBox="0 0 20 20" fill="none" xmlns="http://www.w3.org/2000/svg">
<path d="M19.5306 9.71937L10.5306 0.719374C10.461 0.649641 10.3783 0.594322 10.2872 0.556579C10.1962 0.518836 10.0986 0.499409 10 0.499409C9.90143 0.499409 9.80384 0.518836 9.71279 0.556579C9.62174 0.594322 9.53903 0.649641 9.46937 0.719374L0.469371 9.71937C0.364362 9.82427 0.292836 9.95795 0.263849 10.1035C0.234861 10.2491 0.249714 10.4 0.306529 10.5371C0.363343 10.6742 0.459564 10.7914 0.583009 10.8738C0.706454 10.9562 0.851574 11.0001 0.999996 11H4.75V18.5C4.75 18.8978 4.90803 19.2794 5.18934 19.5607C5.47064 19.842 5.85217 20 6.25 20H13.75C14.1478 20 14.5294 19.842 14.8107 19.5607C15.092 19.2794 15.25 18.8978 15.25 18.5V11H19C19.1484 11.0001 19.2935 10.9562 19.417 10.8738C19.5404 10.7914 19.6366 10.6742 19.6935 10.5371C19.7503 10.4 19.7651 10.2491 19.7361 10.1035C19.7072 9.95795 19.6356 9.82427 19.5306 9.71937ZM14.5 9.5C14.3011 9.5 14.1103 9.57902 13.9697 9.71967C13.829 9.86032 13.75 10.0511 13.75 10.25V18.5H6.25V10.25C6.25 10.0511 6.17098 9.86032 6.03033 9.71967C5.88967 9.57902 5.69891 9.5 5.5 9.5H2.81031L10 2.31031L17.1897 9.5H14.5Z" fill="black"/>
</svg>
